<svg width="130" height="139" viewBox="0 0 130 139" fill="none" xmlns="http://www.w3.org/2000/svg">
<path d="M101.3 14.6C104.779 14.6 107.6 11.7794 107.6 8.3C107.6 4.82061 104.779 2 101.3 2C97.8206 2 95 4.82061 95 8.3C95 11.7794 97.8206 14.6 101.3 14.6Z" stroke="#EC7142" stroke-width="4" stroke-miterlimit="10" stroke-linecap="round" stroke-linejoin="round"/>
<path d="M105.2 48.4C106.967 48.4 108.4 46.9673 108.4 45.2C108.4 43.4327 106.967 42 105.2 42C103.433 42 102 43.4327 102 45.2C102 46.9673 103.433 48.4 105.2 48.4Z" fill="#EC7142"/>
<path d="M3.2 43.4C4.96731 43.4 6.4 41.9673 6.4 40.2C6.4 38.4327 4.96731 37 3.2 37C1.43269 37 0 38.4327 0 40.2C0 41.9673 1.43269 43.4 3.2 43.4Z" fill="#EC7142"/>
<path d="M18.8 69.6C22.0033 69.6 24.6 67.0033 24.6 63.8C24.6 60.5968 22.0033 58 18.8 58C15.5967 58 13 60.5968 13 63.8C13 67.0033 15.5967 69.6 18.8 69.6Z" stroke="#EC7142" stroke-width="4"/>
<path d="M29.5 11C31.9853 11 34 8.98528 34 6.5C34 4.01472 31.9853 2 29.5 2C27.0147 2 25 4.01472 25 6.5C25 8.98528 27.0147 11 29.5 11Z" stroke="#EC7142" stroke-width="4" stroke-miterlimit="10" stroke-linecap="round" stroke-linejoin="round"/>
<path d="M103.5 72C105.985 72 108 69.9853 108 67.5C108 65.0147 105.985 63 103.5 63C101.015 63 99 65.0147 99 67.5C99 69.9853 101.015 72 103.5 72Z" stroke="#EC7142" stroke-width="4" stroke-miterlimit="10" stroke-linecap="round" stroke-linejoin="round"/>
<path d="M92.2999 58.6001H36.8999V65.4001H92.2999V58.6001Z" stroke="#EC7142" stroke-width="4" stroke-miterlimit="10" stroke-linecap="round" stroke-linejoin="round"/>
<path d="M42.8 73H86.4001" stroke="#EC7142" stroke-width="4" stroke-miterlimit="10" stroke-linecap="round" stroke-linejoin="round"/>
<path d="M41.5 67V84" stroke="#EC7142" stroke-width="4" stroke-miterlimit="10" stroke-linecap="round" stroke-linejoin="round"/>
<path d="M51.8999 65.3999V83.9999" stroke="#EC7142" stroke-width="4" stroke-miterlimit="10" stroke-linecap="round" stroke-linejoin="round"/>
<path d="M77.3 65.3999V83.9999" stroke="#EC7142" stroke-width="4" stroke-miterlimit="10" stroke-linecap="round" stroke-linejoin="round"/>
<path d="M87.7 67V84" stroke="#EC7142" stroke-width="4" stroke-miterlimit="10" stroke-linecap="round" stroke-linejoin="round"/>
<path d="M92.2999 86.2002H36.8999" stroke="#EC7142" stroke-width="4" stroke-miterlimit="10" stroke-linecap="round" stroke-linejoin="round"/>
<path d="M30 92.3999H77.3H85.7H99.2" stroke="#EC7142" stroke-width="4" stroke-miterlimit="10" stroke-linecap="round" stroke-linejoin="round"/>
<path d="M87.7 57.1002V22.7002H79.2" stroke="#EC7142" stroke-width="4" stroke-miterlimit="10" stroke-linecap="round" stroke-linejoin="round"/>
<path d="M41.5 57.1002V22.7002H51" stroke="#EC7142" stroke-width="4" stroke-miterlimit="10" stroke-linecap="round" stroke-linejoin="round"/>
<path d="M77.2999 31.8001V19.1001H51.8999V31.9001" stroke="#EC7142" stroke-width="4" stroke-miterlimit="10" stroke-linecap="round" stroke-linejoin="round"/>
<path d="M51.8999 58.6001V38.6001" stroke="#EC7142" stroke-width="4" stroke-miterlimit="10" stroke-linecap="round" stroke-linejoin="round"/>
<path d="M77.3 58.6002V38.2002" stroke="#EC7142" stroke-width="4" stroke-miterlimit="10" stroke-linecap="round" stroke-linejoin="round"/>
<path d="M64.6001 74.3003V83.1003" stroke="#EC7142" stroke-width="4" stroke-miterlimit="10" stroke-linecap="round" stroke-linejoin="round"/>
<path d="M52 49.2002H77.3" stroke="#EC7142" stroke-width="4" stroke-miterlimit="10" stroke-linecap="round" stroke-linejoin="round"/>
<path d="M41.5 52.8003H49.6" stroke="#EC7142" stroke-width="4" stroke-miterlimit="10" stroke-linecap="round" stroke-linejoin="round"/>
<path d="M77.5 52.8003H85.5" stroke="#EC7142" stroke-width="4" stroke-miterlimit="10" stroke-linecap="round" stroke-linejoin="round"/>
<path d="M41.5 44.2002H49.6" stroke="#EC7142" stroke-width="4" stroke-miterlimit="10" stroke-linecap="round" stroke-linejoin="round"/>
<path d="M77.5 44.2002H85.5" stroke="#EC7142" stroke-width="4" stroke-miterlimit="10" stroke-linecap="round" stroke-linejoin="round"/>
<path d="M81.5 35.1002L64.5999 44.6002L47.7 35.1002L64.5999 25.7002L81.5 35.1002Z" stroke="#EC7142" stroke-width="3" stroke-miterlimit="10" stroke-linecap="round" stroke-linejoin="round"/>
<path d="M59.5 34.1001V36.1001" stroke="#EC7142" stroke-width="4" stroke-miterlimit="10" stroke-linecap="round" stroke-linejoin="round"/>
<path d="M64.6001 34.1001V36.1001" stroke="#EC7142" stroke-width="4" stroke-miterlimit="10" stroke-linecap="round" stroke-linejoin="round"/>
<path d="M69.7 34.1001V36.1001" stroke="#EC7142" stroke-width="4" stroke-miterlimit="10" stroke-linecap="round" stroke-linejoin="round"/>
<path d="M5.28 128.25H18.504V131.034H5.28V128.25ZM3.984 121.338H20.04V131.97H16.944V124.098H6.936V131.994H3.984V121.338ZM8.688 109.29L11.976 110.37C11.448 111.346 10.88 112.346 10.272 113.37C9.68 114.378 9.08 115.338 8.472 116.25C7.864 117.146 7.288 117.946 6.744 118.65L4.152 117.594C4.696 116.858 5.248 116.018 5.808 115.074C6.368 114.114 6.896 113.13 7.392 112.122C7.904 111.114 8.336 110.17 8.688 109.29ZM14.448 113.562L16.728 111.882C17.528 112.522 18.344 113.242 19.176 114.042C20.024 114.826 20.8 115.626 21.504 116.442C22.224 117.242 22.792 117.986 23.208 118.674L20.712 120.594C20.328 119.906 19.792 119.154 19.104 118.338C18.432 117.506 17.688 116.674 16.872 115.842C16.056 115.01 15.248 114.25 14.448 113.562ZM1.416 116.274C2.632 116.242 3.984 116.202 5.472 116.154C6.976 116.09 8.552 116.026 10.2 115.962C11.864 115.898 13.552 115.834 15.264 115.77C16.976 115.706 18.656 115.642 20.304 115.578L20.184 118.362C18.52 118.458 16.84 118.546 15.144 118.626C13.448 118.69 11.784 118.762 10.152 118.842C8.536 118.906 7 118.97 5.544 119.034C4.088 119.082 2.768 119.13 1.584 119.178L1.416 116.274ZM28.512 113.634H48.336V125.682H45.312V116.466H31.392V125.802H28.512V113.634ZM30 121.65H46.992V124.482H30V121.65ZM36.816 109.458H39.864V131.994H36.816V109.458ZM65.064 113.802V120.906H72.912V113.802H65.064ZM62.808 111.714H75.288V122.994H62.808V111.714ZM67.944 109.41L71.136 109.842C70.864 110.466 70.568 111.082 70.248 111.69C69.944 112.282 69.672 112.794 69.432 113.226L67.008 112.722C67.184 112.226 67.36 111.674 67.536 111.066C67.728 110.458 67.864 109.906 67.944 109.41ZM66.096 123.834L67.8 122.394C68.264 122.634 68.736 122.906 69.216 123.21C69.712 123.514 70.168 123.834 70.584 124.17C71.016 124.49 71.368 124.802 71.64 125.106L69.816 126.666C69.576 126.378 69.248 126.066 68.832 125.73C68.416 125.378 67.968 125.042 67.488 124.722C67.024 124.386 66.56 124.09 66.096 123.834ZM71.712 125.97L73.776 124.986C74.16 125.498 74.528 126.066 74.88 126.69C75.232 127.314 75.536 127.93 75.792 128.538C76.048 129.13 76.248 129.674 76.392 130.17L74.16 131.25C74.064 130.754 73.888 130.202 73.632 129.594C73.376 128.97 73.088 128.346 72.768 127.722C72.448 127.098 72.096 126.514 71.712 125.97ZM65.76 125.13H68.208V128.946C68.208 129.234 68.24 129.418 68.304 129.498C68.368 129.562 68.528 129.594 68.784 129.594C68.832 129.594 68.912 129.594 69.024 129.594C69.152 129.594 69.288 129.594 69.432 129.594C69.592 129.594 69.728 129.594 69.84 129.594C69.968 129.594 70.072 129.594 70.152 129.594C70.296 129.594 70.408 129.554 70.488 129.474C70.568 129.394 70.624 129.234 70.656 128.994C70.704 128.738 70.736 128.354 70.752 127.842C70.992 128.018 71.328 128.202 71.76 128.394C72.208 128.57 72.6 128.698 72.936 128.778C72.856 129.594 72.72 130.226 72.528 130.674C72.336 131.138 72.072 131.45 71.736 131.61C71.4 131.786 70.968 131.874 70.44 131.874C70.344 131.874 70.2 131.874 70.008 131.874C69.816 131.874 69.608 131.874 69.384 131.874C69.176 131.874 68.984 131.874 68.808 131.874C68.632 131.874 68.488 131.874 68.376 131.874C67.672 131.874 67.128 131.778 66.744 131.586C66.36 131.41 66.096 131.106 65.952 130.674C65.824 130.258 65.76 129.682 65.76 128.946V125.13ZM63.24 125.37L65.472 125.898C65.328 126.938 65.112 127.946 64.824 128.922C64.552 129.882 64.096 130.682 63.456 131.322L61.392 130.194C61.936 129.634 62.352 128.93 62.64 128.082C62.944 127.218 63.144 126.314 63.24 125.37ZM68.256 113.682L69.984 113.922C69.648 114.85 69.192 115.754 68.616 116.634C68.056 117.498 67.312 118.298 66.384 119.034C66.256 118.842 66.056 118.634 65.784 118.41C65.528 118.17 65.296 118.002 65.088 117.906C65.904 117.298 66.576 116.618 67.104 115.866C67.632 115.114 68.016 114.386 68.256 113.682ZM68.712 114.69H71.496V116.058H68.016L68.712 114.69ZM70.896 114.69H71.232L71.544 114.618L72.696 115.074C72.408 116.114 71.992 117.034 71.448 117.834C70.904 118.634 70.28 119.33 69.576 119.922C68.872 120.498 68.12 120.978 67.32 121.362C67.208 121.154 67.04 120.914 66.816 120.642C66.608 120.37 66.408 120.154 66.216 119.994C66.92 119.706 67.584 119.314 68.208 118.818C68.832 118.322 69.376 117.754 69.84 117.114C70.32 116.458 70.672 115.746 70.896 114.978V114.69ZM65.112 116.37L66.336 115.194C67.088 115.53 67.864 115.922 68.664 116.37C69.464 116.818 70.216 117.282 70.92 117.762C71.64 118.226 72.232 118.658 72.696 119.058L71.448 120.402C70.968 119.97 70.376 119.514 69.672 119.034C68.968 118.538 68.216 118.058 67.416 117.594C66.616 117.114 65.848 116.706 65.112 116.37ZM57.096 109.482L59.544 110.346C59.224 110.97 58.888 111.61 58.536 112.266C58.2 112.906 57.864 113.522 57.528 114.114C57.208 114.706 56.896 115.234 56.592 115.698L54.696 114.93C54.984 114.434 55.272 113.874 55.56 113.25C55.864 112.626 56.152 111.978 56.424 111.306C56.712 110.634 56.936 110.026 57.096 109.482ZM59.688 112.338L61.944 113.346C61.384 114.258 60.776 115.21 60.12 116.202C59.48 117.194 58.832 118.146 58.176 119.058C57.536 119.954 56.928 120.754 56.352 121.458L54.72 120.57C55.152 120.026 55.592 119.418 56.04 118.746C56.504 118.058 56.952 117.346 57.384 116.61C57.832 115.858 58.248 115.114 58.632 114.378C59.032 113.642 59.384 112.962 59.688 112.338ZM53.4 115.002L54.792 113.13C55.208 113.498 55.624 113.914 56.04 114.378C56.472 114.826 56.864 115.274 57.216 115.722C57.584 116.17 57.864 116.578 58.056 116.946L56.544 119.082C56.368 118.698 56.104 118.266 55.752 117.786C55.416 117.306 55.04 116.826 54.624 116.346C54.208 115.85 53.8 115.402 53.4 115.002ZM58.968 117.954L60.84 117.186C61.144 117.746 61.424 118.346 61.68 118.986C61.936 119.61 62.16 120.226 62.352 120.834C62.56 121.426 62.704 121.97 62.784 122.466L60.744 123.33C60.696 122.85 60.576 122.306 60.384 121.698C60.208 121.074 59.992 120.434 59.736 119.778C59.496 119.122 59.24 118.514 58.968 117.954ZM53.328 119.994C54.352 119.946 55.552 119.882 56.928 119.802C58.32 119.706 59.736 119.618 61.176 119.538L61.224 121.89C59.896 122.002 58.56 122.106 57.216 122.202C55.888 122.298 54.688 122.394 53.616 122.49L53.328 119.994ZM59.352 124.074L61.248 123.474C61.536 124.162 61.792 124.914 62.016 125.73C62.24 126.53 62.392 127.234 62.472 127.842L60.456 128.49C60.392 127.882 60.256 127.17 60.048 126.354C59.856 125.522 59.624 124.762 59.352 124.074ZM54.36 123.57L56.568 123.954C56.456 125.106 56.272 126.234 56.016 127.338C55.776 128.442 55.48 129.378 55.128 130.146C54.984 130.05 54.784 129.946 54.528 129.834C54.288 129.706 54.04 129.586 53.784 129.474C53.528 129.346 53.304 129.25 53.112 129.186C53.464 128.466 53.736 127.602 53.928 126.594C54.12 125.586 54.264 124.578 54.36 123.57ZM56.808 121.29H59.232V132.018H56.808V121.29ZM88.824 118.242L92.256 119.082C91.872 120.01 91.448 120.962 90.984 121.938C90.536 122.914 90.072 123.874 89.592 124.818C89.112 125.762 88.632 126.666 88.152 127.53C87.688 128.378 87.232 129.146 86.784 129.834L84.096 128.994C84.528 128.258 84.968 127.45 85.416 126.57C85.864 125.674 86.296 124.754 86.712 123.81C87.144 122.85 87.536 121.898 87.888 120.954C88.256 119.994 88.568 119.09 88.824 118.242ZM81.336 128.106C82.456 128.058 83.72 128.01 85.128 127.962C86.536 127.898 88.024 127.834 89.592 127.77C91.16 127.69 92.752 127.61 94.368 127.53C96 127.45 97.608 127.37 99.192 127.29L99.096 130.122C97.048 130.25 94.976 130.378 92.88 130.506C90.784 130.634 88.776 130.746 86.856 130.842C84.952 130.954 83.232 131.058 81.696 131.154L81.336 128.106ZM93.48 123.522L96.264 122.25C96.968 123.114 97.672 124.042 98.376 125.034C99.08 126.026 99.728 127.002 100.32 127.962C100.928 128.906 101.424 129.77 101.808 130.554L98.808 132.138C98.488 131.354 98.032 130.466 97.44 129.474C96.848 128.466 96.208 127.442 95.52 126.402C94.832 125.362 94.152 124.402 93.48 123.522ZM86.28 110.01L89.568 110.922C89.056 112.186 88.44 113.426 87.72 114.642C87.016 115.858 86.264 116.994 85.464 118.05C84.664 119.09 83.856 119.994 83.04 120.762C82.848 120.538 82.576 120.298 82.224 120.042C81.888 119.77 81.536 119.506 81.168 119.25C80.816 118.978 80.512 118.762 80.256 118.602C81.088 117.946 81.88 117.162 82.632 116.25C83.4 115.338 84.096 114.346 84.72 113.274C85.344 112.202 85.864 111.114 86.28 110.01ZM95.952 110.058C96.304 110.762 96.72 111.49 97.2 112.242C97.696 112.994 98.232 113.738 98.808 114.474C99.4 115.194 99.992 115.882 100.584 116.538C101.176 117.178 101.744 117.754 102.288 118.266C102.032 118.458 101.752 118.706 101.448 119.01C101.144 119.298 100.848 119.602 100.56 119.922C100.272 120.226 100.04 120.514 99.864 120.786C99.288 120.178 98.696 119.498 98.088 118.746C97.48 117.978 96.872 117.178 96.264 116.346C95.672 115.498 95.096 114.642 94.536 113.778C93.992 112.914 93.496 112.066 93.048 111.234L95.952 110.058ZM107.496 110.922H125.376V113.658H107.496V110.922ZM107.736 115.362H121.944V117.882H107.736V115.362ZM124.344 110.922H127.32V128.37C127.32 129.186 127.224 129.826 127.032 130.29C126.856 130.77 126.512 131.138 126 131.394C125.504 131.65 124.864 131.81 124.08 131.874C123.296 131.938 122.36 131.962 121.272 131.946C121.24 131.658 121.176 131.322 121.08 130.938C120.984 130.57 120.872 130.194 120.744 129.81C120.616 129.426 120.48 129.098 120.336 128.826C120.8 128.858 121.264 128.882 121.728 128.898C122.192 128.898 122.608 128.898 122.976 128.898C123.344 128.882 123.608 128.874 123.768 128.874C123.992 128.874 124.144 128.834 124.224 128.754C124.304 128.674 124.344 128.522 124.344 128.298V110.922ZM108.96 119.658H111.768V129.57H108.96V119.658ZM111.456 119.658H120.672V127.818H111.456V125.346H117.84V122.13H111.456V119.658Z" fill="#EC7142"/>
</svg>
