<svg width="135" height="146" viewBox="0 0 135 146" fill="none" xmlns="http://www.w3.org/2000/svg">
<path d="M99.5176 43.6718C100.28 41.8677 99.5176 39.2089 101.613 38.3543C102.09 38.1644 102.566 37.3098 102.852 36.835C103.233 36.3602 103.424 35.7905 103.614 35.1258C103.805 34.0813 103.614 33.0368 103.138 31.9923C102.185 29.8083 100.566 27.9092 100.28 25.4403C99.8034 21.7371 102.471 18.6035 104.948 16.2296C105.519 15.7549 105.9 15.5649 105.996 14.9003C105.996 13.9507 106.281 12.5264 105.615 11.7667C105.043 11.102 104.09 10.6272 103.233 10.3424C102.185 9.96256 101.042 10.0575 99.8987 10.1525C98.2792 10.2474 96.6597 10.2474 95.0401 10.0575C90.6579 8.91804 84.8467 -1.05231 79.5118 2.93583C75.7965 8.1584 67.4131 11.4818 61.3161 13.286C56.1717 15.5649 53.7901 21.0724 51.8848 26.0101C47.5978 32.1822 41.8819 37.1199 38.8334 44.3365C31.0216 58.6748 17.3986 71.4939 21.3045 89.1556C18.256 96.3723 21.8761 98.0815 26.0678 103.589C28.7352 107.482 30.3547 111.945 31.3074 116.503C36.6423 122.2 43.3109 119.636 46.5499 127.613C48.741 133.69 42.644 147.458 63.1261 142.236C64.7456 135.969 60.935 129.132 62.9356 122.865C64.4137 118.509 65.0036 117.501 65.8741 116.503" stroke="#E50012" stroke-width="4" stroke-miterlimit="10" stroke-linecap="round" stroke-linejoin="round"/>
<path d="M8.28425 62.8444C11.7549 62.8444 14.5685 60.0308 14.5685 56.5601C14.5685 53.0894 11.7549 50.2759 8.28425 50.2759C4.81355 50.2759 2 53.0894 2 56.5601C2 60.0308 4.81355 62.8444 8.28425 62.8444Z" stroke="#E50012" stroke-width="4" stroke-miterlimit="10" stroke-linecap="round" stroke-linejoin="round"/>
<path d="M126.638 130.924C130.108 130.924 132.922 128.111 132.922 124.64C132.922 121.169 130.108 118.356 126.638 118.356C123.167 118.356 120.353 121.169 120.353 124.64C120.353 128.111 123.167 130.924 126.638 130.924Z" stroke="#E50012" stroke-width="4" stroke-miterlimit="10" stroke-linecap="round" stroke-linejoin="round"/>
<path d="M114.07 138.756C115.529 138.756 116.711 139.939 116.711 141.398C116.711 142.857 115.528 144.04 114.07 144.04C112.611 144.04 111.427 142.857 111.427 141.398C111.427 139.939 112.61 138.756 114.07 138.756Z" fill="#E50012" stroke="#E50012"/>
<path d="M119.829 15.1653C120.999 15.1653 121.948 16.1136 121.948 17.2834C121.948 18.4534 120.999 19.4026 119.829 19.4026C118.659 19.4024 117.711 18.4533 117.711 17.2834C117.711 16.1137 118.66 15.1654 119.829 15.1653Z" fill="#E50012" stroke="#E50012"/>
<path d="M6.03247 113.521C8.93771 113.521 11.2932 115.876 11.2932 118.782C11.2931 121.687 8.93765 124.042 6.03247 124.042C3.12721 124.042 0.771829 121.687 0.771729 118.782C0.771729 115.876 3.12714 113.521 6.03247 113.521Z" fill="#E50012" stroke="#E50012"/>
<path d="M25.409 16.6626C27.7228 16.6626 29.5985 14.7869 29.5985 12.4731C29.5985 10.1593 27.7228 8.28357 25.409 8.28357C23.0952 8.28357 21.2195 10.1593 21.2195 12.4731C21.2195 14.7869 23.0952 16.6626 25.409 16.6626Z" stroke="#E50012" stroke-width="4" stroke-miterlimit="10" stroke-linecap="round" stroke-linejoin="round"/>
<path d="M123.862 57.5105C126.176 57.5105 128.052 55.6348 128.052 53.321C128.052 51.0072 126.176 49.1315 123.862 49.1315C121.548 49.1315 119.673 51.0072 119.673 53.321C119.673 55.6348 121.548 57.5105 123.862 57.5105Z" stroke="#E50012" stroke-width="4" stroke-miterlimit="10" stroke-linecap="round" stroke-linejoin="round"/>
<path d="M99.8264 79.7856H50.4951V85.7557H99.8264V79.7856Z" stroke="#E50012" stroke-width="3" stroke-miterlimit="10" stroke-linecap="round" stroke-linejoin="round"/>
<path d="M55.7319 92.5636H94.6943" stroke="#E50012" stroke-width="3" stroke-miterlimit="10" stroke-linecap="round" stroke-linejoin="round"/>
<path d="M54.6843 87.3267V102.409" stroke="#E50012" stroke-width="3" stroke-miterlimit="10" stroke-linecap="round" stroke-linejoin="round"/>
<path d="M63.9014 85.8604V102.409" stroke="#E50012" stroke-width="3" stroke-miterlimit="10" stroke-linecap="round" stroke-linejoin="round"/>
<path d="M86.5249 85.8604V102.409" stroke="#E50012" stroke-width="3" stroke-miterlimit="10" stroke-linecap="round" stroke-linejoin="round"/>
<path d="M99.9312 104.399H50.4951" stroke="#E50012" stroke-width="3" stroke-miterlimit="10" stroke-linecap="round" stroke-linejoin="round"/>
<path d="M44.3154 109.845H86.5246H93.961H106.111" stroke="#E50012" stroke-width="3" stroke-miterlimit="10" stroke-linecap="round" stroke-linejoin="round"/>
<path d="M83.2776 47.8406H95.7413V78.4239" stroke="#E50012" stroke-width="3" stroke-miterlimit="10" stroke-linecap="round" stroke-linejoin="round"/>
<path d="M54.6843 78.4239V47.8406H66.7291" stroke="#E50012" stroke-width="3" stroke-miterlimit="10" stroke-linecap="round" stroke-linejoin="round"/>
<path d="M75.2129 93.7156V101.571" stroke="#E50012" stroke-width="3" stroke-miterlimit="10" stroke-linecap="round" stroke-linejoin="round"/>
<path d="M83.2776 55.1724H89.3524V78.4241" stroke="#E50012" stroke-width="3" stroke-miterlimit="10" stroke-linecap="round" stroke-linejoin="round"/>
<path d="M61.0735 78.4241V55.1724H66.7293" stroke="#E50012" stroke-width="3" stroke-miterlimit="10" stroke-linecap="round" stroke-linejoin="round"/>
<path d="M67.1482 78.3195V43.9656H83.2778V78.3195" stroke="#E50012" stroke-width="3" stroke-miterlimit="10" stroke-linecap="round" stroke-linejoin="round"/>
<path d="M72.5942 78.424V51.1923H77.8311V78.424" stroke="#E50012" stroke-width="3" stroke-miterlimit="10" stroke-linecap="round" stroke-linejoin="round"/>
<path d="M61.0735 63.551H66.7293" stroke="#E50012" stroke-width="3" stroke-miterlimit="10" stroke-linecap="round" stroke-linejoin="round"/>
<path d="M61.0735 71.7209H66.7293" stroke="#E50012" stroke-width="3" stroke-miterlimit="10" stroke-linecap="round" stroke-linejoin="round"/>
<path d="M83.2776 63.4467H89.3524" stroke="#E50012" stroke-width="3" stroke-miterlimit="10" stroke-linecap="round" stroke-linejoin="round"/>
<path d="M83.2776 71.5115H89.3524" stroke="#E50012" stroke-width="3" stroke-miterlimit="10" stroke-linecap="round" stroke-linejoin="round"/>
<path d="M72.5942 59.257H77.8311" stroke="#E50012" stroke-width="3" stroke-miterlimit="10" stroke-linecap="round" stroke-linejoin="round"/>
<path d="M73.8513 68.1598H77.8313" stroke="#E50012" stroke-width="3" stroke-miterlimit="10" stroke-linecap="round" stroke-linejoin="round"/>
<path d="M95.7415 87.3267V102.409" stroke="#E50012" stroke-width="3" stroke-miterlimit="10" stroke-linecap="round" stroke-linejoin="round"/>
<path d="M90.2952 61.9804L75.213 70.3594L60.1309 61.9804L75.213 53.6014L90.2952 61.9804Z" fill="white" stroke="#E50012" stroke-width="3" stroke-miterlimit="10" stroke-linecap="round" stroke-linejoin="round"/>
<path d="M70.6045 61.142V62.9225" stroke="#E50012" stroke-width="3" stroke-miterlimit="10" stroke-linecap="round" stroke-linejoin="round"/>
<path d="M75.2129 61.142V62.9225" stroke="#E50012" stroke-width="3" stroke-miterlimit="10" stroke-linecap="round" stroke-linejoin="round"/>
<path d="M79.8215 61.142V62.9225" stroke="#E50012" stroke-width="3" stroke-miterlimit="10" stroke-linecap="round" stroke-linejoin="round"/>
</svg>
