<svg width="143" height="125" viewBox="0 0 143 125" fill="none" xmlns="http://www.w3.org/2000/svg">
<path d="M110.466 104.037V121.297L98.0285 113.005L85.6758 121.297V104.037" stroke="#E50012" stroke-width="4" stroke-miterlimit="10" stroke-linecap="round" stroke-linejoin="round"/>
<path d="M67.9081 89.146H44.4717C44.4717 84.5772 40.749 80.8544 36.1802 80.8544V17.9908C40.749 17.9908 44.4717 14.268 44.4717 9.69922H89.7369C89.7369 14.268 93.4597 17.9908 98.0285 17.9908V56.9104" stroke="#E50012" stroke-width="4" stroke-miterlimit="10" stroke-linecap="round" stroke-linejoin="round"/>
<path d="M70.3619 96.7608H28.1426V2H106.151V53.357" stroke="#E50012" stroke-width="4" stroke-miterlimit="10" stroke-linecap="round" stroke-linejoin="round"/>
<path d="M50.3943 24.2518H81.6992" stroke="#E50012" stroke-width="4" stroke-miterlimit="10" stroke-linecap="round" stroke-linejoin="round"/>
<path d="M50.3096 33.2202H59.1088" stroke="#E50012" stroke-width="4" stroke-miterlimit="10" stroke-linecap="round" stroke-linejoin="round"/>
<path d="M50.3096 42.7809H67.908" stroke="#E50012" stroke-width="4" stroke-miterlimit="10" stroke-linecap="round" stroke-linejoin="round"/>
<path d="M50.3096 80.5161H67.908" stroke="#E50012" stroke-width="4" stroke-miterlimit="10" stroke-linecap="round" stroke-linejoin="round"/>
<path d="M65.5391 33.2202H87.8755" stroke="#E50012" stroke-width="4" stroke-miterlimit="10" stroke-linecap="round" stroke-linejoin="round"/>
<path d="M70.3616 55.1337H87.8754" stroke="#E50012" stroke-width="4" stroke-miterlimit="10" stroke-linecap="round" stroke-linejoin="round"/>
<path d="M98.8747 64.9483L103.021 62.3254C103.782 61.8178 104.797 62.0716 105.22 62.9177L107.505 67.2327C107.759 67.7403 108.351 68.0787 108.943 68.0787L113.85 67.8249C114.781 67.8249 115.458 68.5018 115.458 69.4325L115.204 74.3397C115.204 74.932 115.458 75.5242 116.05 75.7781L120.365 78.0625C121.127 78.4855 121.465 79.5008 120.957 80.2623L118.335 84.408C117.996 84.9157 117.996 85.508 118.335 86.0156L120.957 90.1614C121.465 90.9229 121.211 91.9381 120.365 92.3612L116.05 94.6456C115.542 94.8994 115.204 95.4917 115.204 96.0839L115.458 100.991C115.458 101.922 114.781 102.599 113.85 102.599L108.943 102.345C108.351 102.345 107.759 102.599 107.505 103.191L105.22 107.506C104.797 108.267 103.782 108.606 103.021 108.098L98.8747 105.475C98.3671 105.137 97.7749 105.137 97.2672 105.475L93.1214 108.098C92.3599 108.606 91.3447 108.352 90.9216 107.506L88.6372 103.191C88.3834 102.683 87.7911 102.345 87.1989 102.345L82.2916 102.599C81.3609 102.599 80.684 101.922 80.684 100.991L80.9379 96.0839C80.9379 95.4917 80.684 94.8994 80.0918 94.6456L75.7768 92.3612C75.0153 91.9381 74.6769 90.9229 75.1845 90.1614L77.8074 86.0156C78.1458 85.508 78.1458 84.9157 77.8074 84.408L75.1845 80.2623C74.6769 79.5008 74.9307 78.4855 75.7768 78.0625L80.0918 75.7781C80.5994 75.5242 80.9379 74.932 80.9379 74.3397L80.684 69.4325C80.684 68.5018 81.3609 67.8249 82.2916 67.8249L87.1989 68.0787C87.7911 68.0787 88.3834 67.8249 88.6372 67.2327L90.9216 62.9177C91.3447 62.1562 92.3599 61.8178 93.1214 62.3254L97.2672 64.9483C97.6903 65.2867 98.3671 65.2867 98.8747 64.9483Z" stroke="#E50012" stroke-width="4" stroke-miterlimit="10" stroke-linecap="round" stroke-linejoin="round"/>
<path d="M56.1479 122.905C59.0917 122.905 61.4782 120.518 61.4782 117.574C61.4782 114.63 59.0917 112.244 56.1479 112.244C53.2041 112.244 50.8176 114.63 50.8176 117.574C50.8176 120.518 53.2041 122.905 56.1479 122.905Z" stroke="#E50012" stroke-width="4" stroke-miterlimit="10" stroke-linecap="round" stroke-linejoin="round"/>
<path d="M2.70703 24.6672C3.92604 24.6672 4.91481 25.6553 4.91504 26.8743C4.91504 28.0934 3.92618 29.0823 2.70703 29.0823C1.48808 29.082 0.5 28.0933 0.5 26.8743C0.500227 25.6555 1.48822 24.6675 2.70703 24.6672Z" fill="#E50012" stroke="#E50012"/>
<path d="M34.0647 109.529C35.2837 109.529 36.2725 110.517 36.2727 111.736C36.2727 112.955 35.2838 113.944 34.0647 113.944C32.8458 113.944 31.8577 112.955 31.8577 111.736C31.8579 110.517 32.8459 109.529 34.0647 109.529Z" fill="#E50012" stroke="#E50012"/>
<path d="M132.971 109.529C134.19 109.529 135.179 110.517 135.179 111.736C135.179 112.955 134.19 113.944 132.971 113.944C131.752 113.944 130.764 112.955 130.764 111.736C130.764 110.517 131.752 109.529 132.971 109.529Z" fill="#E50012" stroke="#E50012"/>
<path d="M132.972 10.5377C135.406 10.5377 137.379 12.5109 137.379 14.9449C137.379 17.379 135.406 19.3522 132.972 19.3522C130.538 19.3522 128.564 17.379 128.564 14.9449C128.564 12.5109 130.538 10.5377 132.972 10.5377Z" fill="#E50012" stroke="#E50012"/>
<path d="M9.43601 67.776C11.5388 67.776 13.2434 66.0714 13.2434 63.9686C13.2434 61.8659 11.5388 60.1613 9.43601 60.1613C7.33327 60.1613 5.62866 61.8659 5.62866 63.9686C5.62866 66.0714 7.33327 67.776 9.43601 67.776Z" stroke="#E50012" stroke-width="4" stroke-miterlimit="10" stroke-linecap="round" stroke-linejoin="round"/>
<path d="M136.441 42.2733C138.543 42.2733 140.248 40.5687 140.248 38.4659C140.248 36.3632 138.543 34.6586 136.441 34.6586C134.338 34.6586 132.633 36.3632 132.633 38.4659C132.633 40.5687 134.338 42.2733 136.441 42.2733Z" stroke="#E50012" stroke-width="4" stroke-miterlimit="10" stroke-linecap="round" stroke-linejoin="round"/>
<path d="M98.0287 99.5527C106.019 99.5527 112.497 93.0752 112.497 85.0848C112.497 77.0943 106.019 70.6168 98.0287 70.6168C90.0383 70.6168 83.5608 77.0943 83.5608 85.0848C83.5608 93.0752 90.0383 99.5527 98.0287 99.5527Z" stroke="#E50012" stroke-width="4" stroke-miterlimit="10" stroke-linecap="round" stroke-linejoin="round"/>
<path d="M106.151 12.4067H117.066V59.2795" stroke="#E50012" stroke-width="4" stroke-miterlimit="10" stroke-linecap="round" stroke-linejoin="round"/>
</svg>
