<?xml version="1.0" encoding="utf-8"?>
<!-- Generator: Adobe Illustrator 25.2.1, SVG Export Plug-In . SVG Version: 6.00 Build 0)  -->
<svg version="1.1" id="圖層_1" xmlns="http://www.w3.org/2000/svg" xmlns:xlink="http://www.w3.org/1999/xlink" x="0px" y="0px"
	 viewBox="0 0 146 146" style="enable-background:new 0 0 146 146;" xml:space="preserve">
<style type="text/css">
	.st0{fill:none;stroke:#E50012;stroke-width:4;stroke-linecap:round;stroke-linejoin:round;stroke-miterlimit:10;}
	.st1{fill:none;stroke:#E50012;stroke-width:4;stroke-linecap:round;}
	.st2{fill:none;stroke:#E50012;stroke-width:3.84;stroke-linecap:round;stroke-linejoin:round;stroke-miterlimit:10;}
	.st3{fill:#E50012;stroke:#E50012;}
	.st4{fill:none;stroke:#E50012;stroke-width:3;stroke-linecap:round;stroke-linejoin:round;stroke-miterlimit:10;}
</style>
<path class="st0" d="M86.4,62.2c3,0,5.4-2.4,5.4-5.4c0-3-2.4-5.4-5.4-5.4c-3,0-5.4,2.4-5.4,5.4C81,59.8,83.4,62.2,86.4,62.2z"/>
<path class="st0" d="M68.6,126c1.3,0.7,2.7,1,4.2,1c2.4,0,4.6-0.9,6.3-2.5l11.5-10.7"/>
<path class="st0" d="M97,107.8H84.4l4.7-5.3L85.2,88l-6.9-7.3l5.5-9.6l5.7,6h8.9c1.6,0,2.9-1.3,2.9-2.9c0-1.6-1.3-2.9-2.9-2.9h-6.7
	l-6-7.5l-6.2-3.1H64.8l-8.6,9.1c-1.2,1.3-1.1,3.4,0.3,4.5c1.3,1.1,3.1,0.8,4.3-0.4l6.2-7h6l-6.8,10.6L62,91.2L53.8,91
	c-1.7,0-3.1,1.4-3.1,3.1s1.4,3.1,3.1,3.1l13.8,0.2l4-13.3l7,7l2.7,9.7l-5.7,6.9l-12.4,13.7"/>
<path class="st1" d="M33.7,30.1c0.4-0.1-0.1-0.1-0.1-0.1"/>
<path class="st0" d="M26.5,34.6c-7.4,6-12,15.1-12,25.3v1.3c0,9.4,3.9,18.5,10.8,25l37.8,35.4l12.4-13.7l5.7-6.9l-2.7-9.7l-7-7
	l-3.9,13.2l-13.8-0.2c-1.7,0-3.1-1.4-3.1-3.1c0-1.7,1.4-3.1,3.1-3.1l8.2,0.2l4.1-13.8l6.7-10.5h-6l-6.2,7c-1.1,1.2-2.9,1.4-4.3,0.4
	c-1.4-1.1-1.6-3.2-0.3-4.5l8.6-9.1h14.7l6.2,3.1l6,7.5h6.7c1.6,0,2.9,1.3,2.9,2.9c0,1.6-1.3,2.9-2.9,2.9h-8.8l-5.7-6l-5.5,9.6
	l6.8,7.3l3.9,14.5l-4.7,5.3H97l23.2-21.7c7-6.5,10.8-15.5,10.8-25v-1.3c0-15.9-11.5-29.5-27.2-32.1c-10.4-1.7-21,1.6-28.4,9.1
	l-2.7,2.7L70,36.8c-7.5-7.5-18-10.8-28.4-9.1"/>
<path class="st0" d="M27.1,65.2h21.5"/>
<path class="st0" d="M38.7,81.3h10.6"/>
<path class="st0" d="M69.4,24c2.2,0,4-1.8,4-4c0-2.2-1.8-4-4-4c-2.2,0-4,1.8-4,4C65.3,22.2,67.1,24,69.4,24z"/>
<path class="st0" d="M23.1,117c3.4,0,6.1-2.8,6.1-6.1c0-3.4-2.7-6.1-6.1-6.1c-3.4,0-6.1,2.7-6.1,6.1C17,114.2,19.7,117,23.1,117z"/>
<path class="st2" d="M40.4,125.9c1.7,0,3-1.4,3-3c0-1.7-1.4-3-3-3c-1.7,0-3,1.4-3,3C37.3,124.5,38.7,125.9,40.4,125.9z"/>
<path class="st0" d="M115.5,125.4c1.7,0,3.1-1.4,3.1-3.1c0-1.7-1.4-3.1-3.1-3.1c-1.7,0-3.1,1.4-3.1,3.1
	C112.3,124,113.7,125.4,115.5,125.4z"/>
<path class="st3" d="M121.5,102.5c1.6,0,2.9,1.3,2.9,2.9c0,1.6-1.3,2.9-2.9,2.9c-1.6,0-2.9-1.3-2.9-2.9
	C118.6,103.8,119.9,102.5,121.5,102.5z"/>
<path class="st3" d="M124.1,18.4c1.6,0,2.9,1.3,2.9,2.9c0,1.6-1.3,2.9-2.9,2.9c-1.6,0-2.9-1.3-2.9-2.9
	C121.1,19.7,122.4,18.4,124.1,18.4z"/>
<path class="st3" d="M25.3,126.5c1.3,0,2.3,1,2.3,2.3c0,1.3-1,2.3-2.3,2.3c-1.3,0-2.3-1-2.3-2.3C23,127.6,24,126.5,25.3,126.5z"/>
<path class="st3" d="M17.7,17.6c1.6,0,2.9,1.3,2.9,2.9c0,1.6-1.3,2.9-2.9,2.9c-1.6,0-2.9-1.3-2.9-2.9C14.8,18.9,16.1,17.6,17.7,17.6
	z"/>
<path class="st4" d="M125.1,41.2H97.5v13.5H127V44.5"/>
<path class="st4" d="M112,45.3l-3.3,5.1"/>
<path class="st4" d="M108.8,45.3l3.3,5.1"/>
<path class="st4" d="M104.3,48.6h-2.8v1.8h2.8"/>
<path class="st4" d="M116.6,45.3v5.1"/>
<path class="st4" d="M120.3,45.3h3.5"/>
<path class="st4" d="M122.1,45.3v5.1"/>
<path class="st4" d="M101.5,45.3h2.8"/>
</svg>
