<?xml version="1.0" encoding="utf-8"?>
<!-- Generator: Adobe Illustrator 25.2.1, SVG Export Plug-In . SVG Version: 6.00 Build 0)  -->
<svg version="1.1" id="圖層_1" xmlns="http://www.w3.org/2000/svg" xmlns:xlink="http://www.w3.org/1999/xlink" x="0px" y="0px"
	 viewBox="0 0 146 146" style="enable-background:new 0 0 146 146;" xml:space="preserve">
<style type="text/css">
	.st0{fill:none;stroke:#E50012;stroke-width:4;stroke-linecap:round;stroke-linejoin:round;stroke-miterlimit:10;}
	.st1{fill:none;stroke:#E50012;stroke-width:5;stroke-linecap:round;stroke-linejoin:round;stroke-miterlimit:10;}
	.st2{fill:none;stroke:#E50012;stroke-width:4.8824;stroke-linecap:round;stroke-linejoin:round;stroke-miterlimit:10;}
	.st3{fill:#E50012;stroke:#E50012;}
</style>
<path class="st0" d="M31.4,61.5V25.2c0-4,3.2-7.3,7.3-7.3h90c4,0,7.3,3.2,7.3,7.3v79.9H93.3"/>
<path class="st0" d="M32.3,37.9h102.2"/>
<path class="st0" d="M44.3,52h83.2"/>
<path class="st0" d="M84.5,63.6h43"/>
<path class="st0" d="M95,75.2h32.6"/>
<path class="st1" d="M43.8,30.8c1.2,0,2.2-1,2.2-2.2c0-1.2-1-2.2-2.2-2.2c-1.2,0-2.2,1-2.2,2.2C41.6,29.9,42.6,30.8,43.8,30.8z"/>
<path class="st1" d="M54.9,30.8c1.2,0,2.2-1,2.2-2.2c0-1.2-1-2.2-2.2-2.2c-1.2,0-2.2,1-2.2,2.2C52.7,29.9,53.7,30.8,54.9,30.8z"/>
<path class="st1" d="M66,30.8c1.2,0,2.2-1,2.2-2.2c0-1.2-1-2.2-2.2-2.2s-2.2,1-2.2,2.2C63.8,29.9,64.8,30.8,66,30.8z"/>
<path class="st0" d="M71.1,121.6l0.6,0.6c1.8,1.8,1.8,4.8-0.1,6.6c-1.8,1.8-4.7,1.7-6.4-0.1l-3.6-3.6"/>
<path class="st0" d="M55,118.5l7.6,7.6c1.8,1.8,1.8,4.8-0.1,6.6c-1.8,1.8-4.7,1.7-6.4-0.1l-10-9.9"/>
<path class="st0" d="M57.2,91.3l-8.3,8.3c-2.5,2.5-6.4,2.5-8.9,0s-2.5-6.4,0-8.9l14-14H60l3.3-3.3"/>
<path class="st0" d="M80.4,109.5l3.5-3.4v-5"/>
<path class="st0" d="M60.5,98.3l19,18.7c1.8,1.8,1.8,4.8-0.1,6.6c-1.8,1.8-4.7,1.7-6.4-0.1l-9.9-9.9"/>
<path class="st0" d="M52.7,129.3c1.8,1.8,1.8,4.8-0.1,6.6c-1.8,1.8-4.7,1.7-6.4-0.1l-25.7-25.7V98.2"/>
<path class="st0" d="M42.2,76L17.9,99.5L9.5,91l24.3-23.4L42.2,76z"/>
<path class="st0" d="M82.2,74.5L70,62.3L62.3,70l28.6,28.6l7.6-7.6l-3.5-3.4"/>
<path class="st2" d="M86.7,78.7l3.1,3.2"/>
<path class="st0" d="M122.8,129.7c3.1,0,5.5-2.5,5.5-5.5s-2.5-5.5-5.5-5.5c-3.1,0-5.5,2.5-5.5,5.5S119.7,129.7,122.8,129.7z"/>
<path class="st3" d="M128.7,6.5c1.8,0,3.2,1.4,3.2,3.2c0,1.8-1.4,3.2-3.2,3.2c-1.8,0-3.2-1.4-3.2-3.2C125.5,7.9,126.9,6.5,128.7,6.5
	z"/>
<path class="st3" d="M15,41.6c1.3,0,2.3,1,2.3,2.3c0,1.3-1,2.3-2.3,2.3c-1.3,0-2.3-1-2.3-2.3C12.7,42.6,13.8,41.6,15,41.6z"/>
<path class="st3" d="M103,116.7c1.4,0,2.5,1.1,2.5,2.5c0,1.4-1.1,2.5-2.5,2.5c-1.4,0-2.5-1.1-2.5-2.5
	C100.5,117.8,101.6,116.7,103,116.7z"/>
<path class="st3" d="M93.2,128.6c1.8,0,3.2,1.4,3.2,3.2c0,1.8-1.4,3.2-3.2,3.2s-3.2-1.4-3.2-3.2C90,130,91.5,128.6,93.2,128.6z"/>
<path class="st0" d="M19.4,21.6c2.2,0,3.9-1.8,3.9-3.9c0-2.2-1.8-3.9-3.9-3.9c-2.2,0-3.9,1.8-3.9,3.9C15.5,19.9,17.2,21.6,19.4,21.6
	z"/>
</svg>
