<?xml version="1.0" encoding="utf-8"?>
<!-- Generator: Adobe Illustrator 25.2.1, SVG Export Plug-In . SVG Version: 6.00 Build 0)  -->
<svg version="1.1" id="圖層_1" xmlns="http://www.w3.org/2000/svg" xmlns:xlink="http://www.w3.org/1999/xlink" x="0px" y="0px"
	 viewBox="0 0 146 146" style="enable-background:new 0 0 146 146;" xml:space="preserve">
<style type="text/css">
	.st0{fill:none;stroke:#E50012;stroke-width:4;stroke-linecap:round;stroke-linejoin:round;stroke-miterlimit:10;}
	.st1{fill:#E50012;stroke:#E50012;}
	.st2{fill:none;stroke:#E50012;stroke-width:3;stroke-linecap:round;stroke-linejoin:round;stroke-miterlimit:10;}
	.st3{fill:#FFFFFF;stroke:#E50012;stroke-width:3;stroke-linecap:round;stroke-linejoin:round;stroke-miterlimit:10;}
</style>
<path class="st0" d="M105,43.7c0.8-1.8,0-4.5,2.1-5.3c0.5-0.2,1-1,1.2-1.5c0.4-0.5,0.6-1,0.8-1.7c0.2-1,0-2.1-0.5-3.1
	c-1-2.2-2.6-4.1-2.9-6.6c-0.5-3.7,2.2-6.8,4.7-9.2c0.6-0.5,1-0.7,1-1.3c0-0.9,0.3-2.4-0.4-3.1c-0.6-0.7-1.5-1.1-2.4-1.4
	c-1-0.4-2.2-0.3-3.3-0.2c-1.6,0.1-3.2,0.1-4.9-0.1C96.2,8.9,90.3-1.1,85,2.9c-3.7,5.2-12.1,8.5-18.2,10.4c-5.1,2.3-7.5,7.8-9.4,12.7
	c-4.3,6.2-10,11.1-13.1,18.3c-7.8,14.3-21.4,27.2-17.5,44.8c-3,7.2,0.6,8.9,4.8,14.4c2.7,3.9,4.3,8.4,5.2,12.9
	c5.3,5.7,12,3.1,15.2,11.1c2.2,6.1-3.9,19.8,16.6,14.6c1.6-6.3-2.2-13.1-0.2-19.4c1.5-4.4,2.1-5.4,2.9-6.4"/>
<path class="st0" d="M13.8,62.8c3.5,0,6.3-2.8,6.3-6.3s-2.8-6.3-6.3-6.3c-3.5,0-6.3,2.8-6.3,6.3S10.3,62.8,13.8,62.8z"/>
<path class="st0" d="M132.1,130.9c3.5,0,6.3-2.8,6.3-6.3c0-3.5-2.8-6.3-6.3-6.3c-3.5,0-6.3,2.8-6.3,6.3
	C125.9,128.1,128.7,130.9,132.1,130.9z"/>
<path class="st1" d="M119.6,138.8c1.5,0,2.6,1.2,2.6,2.6s-1.2,2.6-2.6,2.6c-1.5,0-2.6-1.2-2.6-2.6S118.1,138.8,119.6,138.8z"/>
<path class="st1" d="M125.3,15.2c1.2,0,2.1,0.9,2.1,2.1c0,1.2-0.9,2.1-2.1,2.1c-1.2,0-2.1-0.9-2.1-2.1
	C123.2,16.1,124.2,15.2,125.3,15.2z"/>
<path class="st1" d="M11.5,113.5c2.9,0,5.3,2.4,5.3,5.3c0,2.9-2.4,5.3-5.3,5.3c-2.9,0-5.3-2.4-5.3-5.3
	C6.3,115.9,8.6,113.5,11.5,113.5z"/>
<path class="st0" d="M30.9,16.7c2.3,0,4.2-1.9,4.2-4.2s-1.9-4.2-4.2-4.2s-4.2,1.9-4.2,4.2S28.6,16.7,30.9,16.7z"/>
<path class="st0" d="M129.4,57.5c2.3,0,4.2-1.9,4.2-4.2s-1.9-4.2-4.2-4.2c-2.3,0-4.2,1.9-4.2,4.2S127,57.5,129.4,57.5z"/>
<path class="st2" d="M105.3,79.8H56v6h49.3V79.8z"/>
<path class="st2" d="M61.2,92.6h39"/>
<path class="st2" d="M60.2,87.3v15.1"/>
<path class="st2" d="M69.4,85.9v16.5"/>
<path class="st2" d="M92,85.9v16.5"/>
<path class="st2" d="M105.4,104.4H56"/>
<path class="st2" d="M49.8,109.8H92h7.4h12.2"/>
<path class="st2" d="M88.8,47.8h12.5v30.6"/>
<path class="st2" d="M60.2,78.4V47.8h12"/>
<path class="st2" d="M80.7,93.7v7.9"/>
<path class="st2" d="M88.8,55.2h6.1v23.3"/>
<path class="st2" d="M66.6,78.4V55.2h5.7"/>
<path class="st2" d="M72.6,78.3V44h16.1v34.4"/>
<path class="st2" d="M78.1,78.4V51.2h5.2v27.2"/>
<path class="st2" d="M66.6,63.6h5.7"/>
<path class="st2" d="M66.6,71.7h5.7"/>
<path class="st2" d="M88.8,63.4h6.1"/>
<path class="st2" d="M88.8,71.5h6.1"/>
<path class="st2" d="M78.1,59.3h5.2"/>
<path class="st2" d="M79.4,68.2h4"/>
<path class="st2" d="M101.2,87.3v15.1"/>
<path class="st3" d="M95.8,62l-15.1,8.4L65.6,62l15.1-8.4L95.8,62z"/>
<path class="st2" d="M76.1,61.1v1.8"/>
<path class="st2" d="M80.7,61.1v1.8"/>
<path class="st2" d="M85.3,61.1v1.8"/>
</svg>
