<svg width="131" height="134" viewBox="0 0 131 134" fill="none" xmlns="http://www.w3.org/2000/svg">
<path d="M23.9386 55.4605V19.218C23.9386 15.1814 27.1855 11.9344 31.2222 11.9344H121.258C125.295 11.9344 128.542 15.1814 128.542 19.218V99.1621H85.8053" stroke="#E50012" stroke-width="4" stroke-miterlimit="10" stroke-linecap="round" stroke-linejoin="round"/>
<path d="M24.8162 31.8547H127.05" stroke="#E50012" stroke-width="4" stroke-miterlimit="10" stroke-linecap="round" stroke-linejoin="round"/>
<path d="M36.8384 45.9832H120.029" stroke="#E50012" stroke-width="4" stroke-miterlimit="10" stroke-linecap="round" stroke-linejoin="round"/>
<path d="M77.0299 57.5668H120.029" stroke="#E50012" stroke-width="4" stroke-miterlimit="10" stroke-linecap="round" stroke-linejoin="round"/>
<path d="M87.4725 69.1504H120.029" stroke="#E50012" stroke-width="4" stroke-miterlimit="10" stroke-linecap="round" stroke-linejoin="round"/>
<path d="M36.3119 24.8346C37.5235 24.8346 38.5058 23.8524 38.5058 22.6408C38.5058 21.4291 37.5235 20.4469 36.3119 20.4469C35.1003 20.4469 34.118 21.4291 34.118 22.6408C34.118 23.8524 35.1003 24.8346 36.3119 24.8346Z" stroke="#E50012" stroke-width="5" stroke-miterlimit="10" stroke-linecap="round" stroke-linejoin="round"/>
<path d="M47.369 24.8346C48.5807 24.8346 49.5629 23.8524 49.5629 22.6408C49.5629 21.4291 48.5807 20.4469 47.369 20.4469C46.1574 20.4469 45.1752 21.4291 45.1752 22.6408C45.1752 23.8524 46.1574 24.8346 47.369 24.8346Z" stroke="#E50012" stroke-width="5" stroke-miterlimit="10" stroke-linecap="round" stroke-linejoin="round"/>
<path d="M58.5138 24.8346C59.7254 24.8346 60.7077 23.8524 60.7077 22.6408C60.7077 21.4291 59.7254 20.4469 58.5138 20.4469C57.3022 20.4469 56.3199 21.4291 56.3199 22.6408C56.3199 23.8524 57.3022 24.8346 58.5138 24.8346Z" stroke="#E50012" stroke-width="5" stroke-miterlimit="10" stroke-linecap="round" stroke-linejoin="round"/>
<path d="M63.6033 115.572L64.2176 116.186C66.0604 118.029 65.9727 121.013 64.1298 122.768C62.287 124.523 59.4789 124.435 57.7238 122.68L54.1259 119.082" stroke="#E50012" stroke-width="4" stroke-miterlimit="10" stroke-linecap="round" stroke-linejoin="round"/>
<path d="M47.4566 112.501L55.0912 120.135C56.934 121.978 56.8463 124.962 55.0034 126.717C53.1606 128.472 50.3525 128.384 48.5974 126.629L38.5934 116.713" stroke="#E50012" stroke-width="4" stroke-miterlimit="10" stroke-linecap="round" stroke-linejoin="round"/>
<path d="M49.7381 85.2969L41.4014 93.6335C38.9443 96.0906 34.9954 96.0906 32.5383 93.6335C30.0812 91.1764 30.0812 87.2275 32.5383 84.7703L46.5789 70.7297H52.4585L55.7931 67.395" stroke="#E50012" stroke-width="4" stroke-miterlimit="10" stroke-linecap="round" stroke-linejoin="round"/>
<path d="M72.9053 103.462L76.4154 100.04V95.0376" stroke="#E50012" stroke-width="4" stroke-miterlimit="10" stroke-linecap="round" stroke-linejoin="round"/>
<path d="M52.9851 92.3174L72.0277 111.009C73.8706 112.852 73.7828 115.836 71.94 117.591C70.0971 119.346 67.289 119.258 65.5339 117.503L55.6177 107.587" stroke="#E50012" stroke-width="4" stroke-miterlimit="10" stroke-linecap="round" stroke-linejoin="round"/>
<path d="M45.175 123.295C47.0178 125.137 46.9301 128.121 45.0873 129.876C43.2444 131.631 40.4363 131.543 38.6812 129.788L12.9692 104.076V92.2296" stroke="#E50012" stroke-width="4" stroke-miterlimit="10" stroke-linecap="round" stroke-linejoin="round"/>
<path d="M34.7323 70.0277L10.4244 93.458L2 85.0336L26.3079 61.6033L34.7323 70.0277Z" stroke="#E50012" stroke-width="4" stroke-miterlimit="10" stroke-linecap="round" stroke-linejoin="round"/>
<path d="M74.6604 68.5358L62.4626 56.338L54.828 63.9726L83.4359 92.5805L91.0705 84.9459L87.5603 81.5235" stroke="#E50012" stroke-width="4" stroke-miterlimit="10" stroke-linecap="round" stroke-linejoin="round"/>
<path d="M79.2238 72.7483L82.2952 75.9074" stroke="#E50012" stroke-width="4.8824" stroke-miterlimit="10" stroke-linecap="round" stroke-linejoin="round"/>
<path d="M115.291 123.733C118.344 123.733 120.819 121.258 120.819 118.205C120.819 115.152 118.344 112.676 115.291 112.676C112.237 112.676 109.762 115.152 109.762 118.205C109.762 121.258 112.237 123.733 115.291 123.733Z" stroke="#E50012" stroke-width="4" stroke-miterlimit="10" stroke-linecap="round" stroke-linejoin="round"/>
<path d="M121.17 0.5C122.929 0.5 124.356 1.92621 124.356 3.68555C124.356 5.44494 122.929 6.87109 121.17 6.87109C119.411 6.87103 117.984 5.44491 117.984 3.68555C117.985 1.92624 119.411 0.500061 121.17 0.5Z" fill="#E50012" stroke="#E50012"/>
<path d="M7.52905 35.6018C8.80358 35.6021 9.83667 36.6358 9.83667 37.9104C9.83642 39.1848 8.80343 40.2178 7.52905 40.218C6.25446 40.218 5.22071 39.1849 5.22046 37.9104C5.22046 36.6356 6.25431 35.6018 7.52905 35.6018Z" fill="#E50012" stroke="#E50012"/>
<path d="M95.4583 110.719C96.8298 110.719 97.9415 111.831 97.9417 113.203C97.9417 114.574 96.8299 115.686 95.4583 115.686C94.0867 115.686 92.9749 114.574 92.9749 113.203C92.975 111.831 94.0868 110.719 95.4583 110.719Z" fill="#E50012" stroke="#E50012"/>
<path d="M85.7173 122.566C87.4766 122.566 88.9028 123.992 88.9028 125.752C88.9028 127.511 87.4767 128.937 85.7173 128.937C83.9579 128.937 82.5317 127.511 82.5317 125.752C82.5318 123.992 83.958 122.566 85.7173 122.566Z" fill="#E50012" stroke="#E50012"/>
<path d="M11.9162 15.6204C14.0972 15.6204 15.8652 13.8524 15.8652 11.6715C15.8652 9.49053 14.0972 7.72253 11.9162 7.72253C9.73528 7.72253 7.96729 9.49053 7.96729 11.6715C7.96729 13.8524 9.73528 15.6204 11.9162 15.6204Z" stroke="#E50012" stroke-width="4" stroke-miterlimit="10" stroke-linecap="round" stroke-linejoin="round"/>
</svg>
