<svg width="121" height="118" viewBox="0 0 121 118" fill="none" xmlns="http://www.w3.org/2000/svg">
<path d="M73.8916 48.181C76.8762 48.181 79.2957 45.7615 79.2957 42.7768C79.2957 39.7922 76.8762 37.3727 73.8916 37.3727C70.907 37.3727 68.4874 39.7922 68.4874 42.7768C68.4874 45.7615 70.907 48.181 73.8916 48.181Z" stroke="#E50012" stroke-width="4" stroke-miterlimit="10" stroke-linecap="round" stroke-linejoin="round"/>
<path d="M56.1234 111.967C57.4335 112.622 58.8255 112.949 60.2994 112.949C62.6739 112.949 64.8847 112.049 66.6042 110.493L78.1495 99.7664" stroke="#E50012" stroke-width="4" stroke-miterlimit="10" stroke-linecap="round" stroke-linejoin="round"/>
<path d="M84.5362 93.7888H71.9265L76.5937 88.4666L72.6634 73.9736L65.7854 66.6862L71.2714 57.1061L77.0031 63.0834H85.9281C87.5658 63.0834 88.794 61.7733 88.794 60.2176C88.794 58.5799 87.4839 57.3517 85.9281 57.3517H79.2139L73.2366 49.8186L67.0136 46.7072H52.275L43.6774 55.796C42.4492 57.1061 42.613 59.1531 44.005 60.2994C45.3151 61.3639 47.1165 61.1182 48.2628 59.89L54.4858 52.8482H60.4631L53.667 63.4109L49.491 77.167L41.3029 77.0032C39.5834 77.0032 38.1914 78.3952 38.1914 80.1147C38.1914 81.8342 39.5834 83.2262 41.3029 83.2262L55.1408 83.3899L59.153 70.1252L66.1129 77.167L68.815 86.8289L63.0833 93.707L50.6374 107.381" stroke="#E50012" stroke-width="4" stroke-miterlimit="10" stroke-linecap="round" stroke-linejoin="round"/>
<path d="M21.2421 16.0836C21.5936 16.0327 21.1097 16.0327 21.1097 16.0327" stroke="#E50012" stroke-width="4" stroke-linecap="round"/>
<path d="M14.0365 20.5871C6.66723 26.5644 2 35.7351 2 45.8883V47.1984C2 56.6148 5.9303 65.7036 12.8083 72.1722L50.6374 107.545L63.0834 93.8707L68.8151 86.9927L66.113 77.3307L59.1531 70.2889L55.2228 83.4718L41.3849 83.3081C39.6654 83.3081 38.2734 81.9161 38.2734 80.1966C38.2734 78.4771 39.6654 77.0851 41.3849 77.0851L49.573 77.2488L53.667 63.4109L60.3813 52.9301H54.404L48.181 59.9719C47.1165 61.2001 45.2333 61.3639 43.9232 60.3813C42.5312 59.235 42.3674 57.188 43.5957 55.8779L52.1932 46.789H66.9318L73.1548 49.9005L79.1321 57.3517H85.8464C87.484 57.3517 88.7122 58.6618 88.7122 60.2176C88.7122 61.8552 87.4021 63.0834 85.8464 63.0834H77.0032L71.2715 57.1061L65.7855 66.6862L72.5816 73.9736L76.5119 88.4666L71.8447 93.7889H84.5363L107.709 72.0903C114.669 65.6217 118.517 56.6148 118.517 47.1166V45.8065C118.517 29.9215 107.054 16.3292 91.3324 13.709C80.9335 11.9895 70.3708 15.3467 62.9196 22.7979L60.2175 25.4999L57.5155 22.7979C50.0643 15.3467 39.5016 11.9895 29.1027 13.709" stroke="#E50012" stroke-width="4" stroke-miterlimit="10" stroke-linecap="round" stroke-linejoin="round"/>
<path d="M14.6096 51.2107H36.1444" stroke="#E50012" stroke-width="4" stroke-miterlimit="10" stroke-linecap="round" stroke-linejoin="round"/>
<path d="M26.2367 67.3413H36.7994" stroke="#E50012" stroke-width="4" stroke-miterlimit="10" stroke-linecap="round" stroke-linejoin="round"/>
<path d="M56.8603 10.0244C59.0762 10.0244 60.8725 8.22804 60.8725 6.01218C60.8725 3.79631 59.0762 2 56.8603 2C54.6445 2 52.8481 3.79631 52.8481 6.01218C52.8481 8.22804 54.6445 10.0244 56.8603 10.0244Z" stroke="#E50012" stroke-width="4" stroke-miterlimit="10" stroke-linecap="round" stroke-linejoin="round"/>
<path d="M10.5975 102.96C13.9891 102.96 16.7386 100.21 16.7386 96.8186C16.7386 93.427 13.9891 90.6775 10.5975 90.6775C7.20588 90.6775 4.45642 93.427 4.45642 96.8186C4.45642 100.21 7.20588 102.96 10.5975 102.96Z" stroke="#E50012" stroke-width="4" stroke-miterlimit="10" stroke-linecap="round" stroke-linejoin="round"/>
<path d="M27.8743 111.885C29.5475 111.885 30.9039 110.528 30.9039 108.855C30.9039 107.182 29.5475 105.826 27.8743 105.826C26.2011 105.826 24.8447 107.182 24.8447 108.855C24.8447 110.528 26.2011 111.885 27.8743 111.885Z" stroke="#E50012" stroke-width="3.84" stroke-miterlimit="10" stroke-linecap="round" stroke-linejoin="round"/>
<path d="M102.959 111.393C104.678 111.393 106.071 110 106.071 108.282C106.071 106.563 104.678 105.17 102.959 105.17C101.241 105.17 99.8479 106.563 99.8479 108.282C99.8479 110 101.241 111.393 102.959 111.393Z" stroke="#E50012" stroke-width="4" stroke-miterlimit="10" stroke-linecap="round" stroke-linejoin="round"/>
<path d="M109.019 88.4755C110.642 88.4757 111.958 89.7919 111.958 91.4149C111.957 93.0377 110.642 94.3532 109.019 94.3534C107.396 94.3534 106.08 93.0379 106.08 91.4149C106.08 89.7917 107.396 88.4755 109.019 88.4755Z" fill="#E50012" stroke="#E50012"/>
<path d="M111.557 4.38342C113.18 4.38366 114.496 5.69985 114.496 7.32288C114.496 8.9457 113.18 10.2611 111.557 10.2614C109.934 10.2614 108.618 8.94584 108.618 7.32288C108.618 5.6997 109.934 4.38342 111.557 4.38342Z" fill="#E50012" stroke="#E50012"/>
<path d="M12.8085 112.548C14.0698 112.549 15.0927 113.571 15.0927 114.833C15.0925 116.094 14.0697 117.117 12.8085 117.117C11.5471 117.117 10.5244 116.094 10.5243 114.833C10.5243 113.571 11.5471 112.548 12.8085 112.548Z" fill="#E50012" stroke="#E50012"/>
<path d="M5.19373 3.56445C6.81669 3.56469 8.1322 4.88088 8.1322 6.50391C8.13196 8.12673 6.81655 9.44214 5.19373 9.44238C3.5707 9.44238 2.25451 8.12687 2.25427 6.50391C2.25427 4.88074 3.57055 3.56445 5.19373 3.56445Z" fill="#E50012" stroke="#E50012"/>
<path d="M112.564 27.1621H84.9828V40.7109H114.5V30.5493" stroke="#E50012" stroke-width="3" stroke-miterlimit="10" stroke-linecap="round" stroke-linejoin="round"/>
<path d="M99.5352 31.344L96.2734 36.4457" stroke="#E50012" stroke-width="3" stroke-miterlimit="10" stroke-linecap="round" stroke-linejoin="round"/>
<path d="M96.2734 31.344L99.5352 36.4457" stroke="#E50012" stroke-width="3" stroke-miterlimit="10" stroke-linecap="round" stroke-linejoin="round"/>
<path d="M91.7571 34.6057H88.9972V36.4457H91.7571" stroke="#E50012" stroke-width="3" stroke-miterlimit="10" stroke-linecap="round" stroke-linejoin="round"/>
<path d="M104.051 31.344V36.4457" stroke="#E50012" stroke-width="3" stroke-miterlimit="10" stroke-linecap="round" stroke-linejoin="round"/>
<path d="M107.815 31.344H111.328" stroke="#E50012" stroke-width="3" stroke-miterlimit="10" stroke-linecap="round" stroke-linejoin="round"/>
<path d="M109.571 31.344V36.4457" stroke="#E50012" stroke-width="3" stroke-miterlimit="10" stroke-linecap="round" stroke-linejoin="round"/>
<path d="M88.9972 31.344H91.7571" stroke="#E50012" stroke-width="3" stroke-miterlimit="10" stroke-linecap="round" stroke-linejoin="round"/>
</svg>
