<?xml version="1.0" encoding="utf-8"?>
<!-- Generator: Adobe Illustrator 25.2.1, SVG Export Plug-In . SVG Version: 6.00 Build 0)  -->
<svg version="1.1" id="圖層_1" xmlns="http://www.w3.org/2000/svg" xmlns:xlink="http://www.w3.org/1999/xlink" x="0px" y="0px"
	 viewBox="0 0 146 146" style="enable-background:new 0 0 146 146;" xml:space="preserve">
<style type="text/css">
	.st0{fill:none;stroke:#E50012;stroke-width:4;stroke-linecap:round;stroke-linejoin:round;stroke-miterlimit:10;}
	.st1{fill:#E50012;stroke:#E50012;}
</style>
<path class="st0" d="M112,114.5v17.3l-12.4-8.3l-12.4,8.3v-17.3"/>
<path class="st0" d="M69.4,99.6H46c0-4.6-3.7-8.3-8.3-8.3V28.5c4.6,0,8.3-3.7,8.3-8.3h45.3c0,4.6,3.7,8.3,8.3,8.3v38.9"/>
<path class="st0" d="M71.9,107.3H29.6V12.5h78v51.4"/>
<path class="st0" d="M51.9,34.8h31.3"/>
<path class="st0" d="M51.8,43.7h8.8"/>
<path class="st0" d="M51.8,53.3h17.6"/>
<path class="st0" d="M51.8,91h17.6"/>
<path class="st0" d="M67,43.7h22.3"/>
<path class="st0" d="M71.9,65.6h17.5"/>
<path class="st0" d="M100.4,75.4l4.1-2.6c0.8-0.5,1.8-0.3,2.2,0.6l2.3,4.3c0.3,0.5,0.8,0.8,1.4,0.8l4.9-0.3c0.9,0,1.6,0.7,1.6,1.6
	l-0.3,4.9c0,0.6,0.3,1.2,0.8,1.4l4.3,2.3c0.8,0.4,1.1,1.4,0.6,2.2l-2.6,4.1c-0.3,0.5-0.3,1.1,0,1.6l2.6,4.1c0.5,0.8,0.3,1.8-0.6,2.2
	l-4.3,2.3c-0.5,0.3-0.8,0.8-0.8,1.4l0.3,4.9c0,0.9-0.7,1.6-1.6,1.6l-4.9-0.3c-0.6,0-1.2,0.3-1.4,0.8l-2.3,4.3
	c-0.4,0.8-1.4,1.1-2.2,0.6l-4.1-2.6c-0.5-0.3-1.1-0.3-1.6,0l-4.1,2.6c-0.8,0.5-1.8,0.3-2.2-0.6l-2.3-4.3c-0.3-0.5-0.8-0.8-1.4-0.8
	l-4.9,0.3c-0.9,0-1.6-0.7-1.6-1.6l0.3-4.9c0-0.6-0.3-1.2-0.8-1.4l-4.3-2.3c-0.8-0.4-1.1-1.4-0.6-2.2l2.6-4.1c0.3-0.5,0.3-1.1,0-1.6
	l-2.6-4.1c-0.5-0.8-0.3-1.8,0.6-2.2l4.3-2.3c0.5-0.3,0.8-0.8,0.8-1.4l-0.3-4.9c0-0.9,0.7-1.6,1.6-1.6l4.9,0.3c0.6,0,1.2-0.3,1.4-0.8
	l2.3-4.3c0.4-0.8,1.4-1.1,2.2-0.6l4.1,2.6C99.2,75.8,99.9,75.8,100.4,75.4z"/>
<path class="st0" d="M57.6,133.4c2.9,0,5.3-2.4,5.3-5.3c0-2.9-2.4-5.3-5.3-5.3c-2.9,0-5.3,2.4-5.3,5.3
	C52.3,131,54.7,133.4,57.6,133.4z"/>
<path class="st1" d="M4.2,35.2c1.2,0,2.2,1,2.2,2.2c0,1.2-1,2.2-2.2,2.2c-1.2,0-2.2-1-2.2-2.2C2,36.2,3,35.2,4.2,35.2z"/>
<path class="st1" d="M35.6,120c1.2,0,2.2,1,2.2,2.2c0,1.2-1,2.2-2.2,2.2c-1.2,0-2.2-1-2.2-2.2C33.4,121,34.3,120,35.6,120z"/>
<path class="st1" d="M134.5,120c1.2,0,2.2,1,2.2,2.2s-1,2.2-2.2,2.2c-1.2,0-2.2-1-2.2-2.2S133.3,120,134.5,120z"/>
<path class="st1" d="M134.5,21c2.4,0,4.4,2,4.4,4.4c0,2.4-2,4.4-4.4,4.4s-4.4-2-4.4-4.4C130.1,23,132,21,134.5,21z"/>
<path class="st0" d="M10.9,78.3c2.1,0,3.8-1.7,3.8-3.8c0-2.1-1.7-3.8-3.8-3.8c-2.1,0-3.8,1.7-3.8,3.8C7.1,76.6,8.8,78.3,10.9,78.3z"
	/>
<path class="st0" d="M137.9,52.8c2.1,0,3.8-1.7,3.8-3.8c0-2.1-1.7-3.8-3.8-3.8c-2.1,0-3.8,1.7-3.8,3.8
	C134.1,51.1,135.8,52.8,137.9,52.8z"/>
<path class="st0" d="M99.5,110.1c8,0,14.5-6.5,14.5-14.5c0-8-6.5-14.5-14.5-14.5c-8,0-14.5,6.5-14.5,14.5
	C85.1,103.6,91.5,110.1,99.5,110.1z"/>
<path class="st0" d="M107.7,22.9h10.9v46.9"/>
</svg>
