<svg width="89" height="57" viewBox="0 0 89 57" fill="none" xmlns="http://www.w3.org/2000/svg">
<path d="M44.4958 54.5963C44.1676 54.5963 43.8393 54.5123 43.5448 54.3358L0.90052 28.8931C0.345059 28.5568 0 27.9517 0 27.3045C0 26.6573 0.345059 26.0521 0.90052 25.7159L43.5532 0.264765C44.1339 -0.0882551 44.8661 -0.0882551 45.4552 0.264765L88.0995 25.7159C88.6549 26.0521 89 26.6489 89 27.3045C89 27.9601 88.6549 28.5568 88.0995 28.8931L45.4468 54.3358C45.1607 54.5123 44.824 54.5963 44.4958 54.5963ZM5.46203 27.3045L44.4958 50.5954L83.5296 27.3045L44.4958 4.0051L5.46203 27.3045Z" fill="white"/>
<path d="M36.0712 33.6673H29.271V33.1966C30.6597 33.0789 31.1226 33.0453 31.1226 31.4483V21.4208C29.7928 21.4965 27.8319 21.5889 27.4447 24.6316H26.8893L26.9482 20.8072H38.3772L38.4193 24.6316H37.8638C37.4851 21.5889 35.5242 21.4965 34.2113 21.4208V31.4399C34.2113 33.0537 34.6657 33.0957 36.0796 33.1882V33.6673H36.0712Z" fill="white"/>
<path d="M39.3114 20.8156H50.3028V24.64H49.8231C49.3854 21.9419 48.0305 21.4628 45.4636 21.4628C44.42 21.4628 44.0749 21.5385 44.0749 22.3538V26.7666C45.9012 26.7834 46.8775 26.2875 47.1552 23.934H47.6517V30.364H47.1552C46.9279 27.9853 45.9601 27.4138 44.0749 27.4138V32.0198C44.0749 32.8604 44.4368 33.0873 45.674 33.0873C47.5423 33.0873 49.478 32.5914 50.6815 29.7168H51.2117L50.4459 33.6757H39.3114V33.205C40.3971 33.0873 40.9862 33.0369 40.9862 31.8517V22.6396C40.9862 21.3872 40.1867 21.3452 39.3114 21.2863V20.8156Z" fill="white"/>
<path d="M52.0197 20.8156H63.0111V24.64H62.5313C62.0937 21.9419 60.7387 21.4628 58.1718 21.4628C57.1198 21.4628 56.7832 21.5385 56.7832 22.3538V26.7666C58.6094 26.7834 59.5857 26.2875 59.8719 23.934H60.3684V30.364H59.8719C59.6446 27.9853 58.6684 27.4138 56.7832 27.4138V32.0198C56.7832 32.8604 57.145 33.0873 58.3822 33.0873C60.2506 33.0873 62.1947 32.5914 63.3898 29.7168H63.92L63.1625 33.6757H52.0197V33.205C53.1053 33.0873 53.6945 33.0369 53.6945 31.8517V22.6396C53.6945 21.3872 52.8949 21.3452 52.0197 21.2863V20.8156Z" fill="white"/>
<path d="M14.341 50.3769L14.0548 49.4019L15.2162 49.3262C16.0831 48.3596 16.8826 47.2922 17.6316 46.1154L18.5237 46.6113C18.1029 47.3342 17.4717 48.1999 16.6385 49.2338L22.9254 48.8219C22.8159 48.6454 22.2857 48.1663 21.3852 47.4098L22.21 46.7542C23.6323 48.0402 24.7432 49.1413 25.5091 50.0239L24.6591 50.6206L23.809 49.6792L14.341 50.3769ZM16.4029 56.2858H15.3004V51.6377C15.3004 51.4023 15.4266 51.2931 15.6791 51.2931H23.8764C24.1204 51.2931 24.2551 51.4023 24.2551 51.6377V56.2858H23.1526V55.7983H16.3861V56.2858H16.4029ZM23.1694 54.8569V52.3857C23.1694 52.2849 23.1189 52.2428 23.0095 52.2428H16.5628C16.4534 52.2428 16.3861 52.2849 16.4029 52.3857V54.8569H23.1694Z" fill="white"/>
<path d="M66.2766 52.1672C65.8726 53.8987 65.2414 55.2856 64.4167 56.2858L63.3899 55.8655C64.3493 54.6888 64.9805 53.4028 65.2414 51.9907L66.2766 52.1672ZM64.1053 49.0657C64.7365 49.4019 65.4266 49.8726 66.1672 50.4946L65.5023 51.2342C64.7112 50.587 64.0463 50.1163 63.4909 49.8222L64.1053 49.0657ZM64.4251 46.334C65.0647 46.7038 65.7801 47.2333 66.5628 47.9226L65.8726 48.6286C65.0563 47.931 64.3577 47.4098 63.777 47.0904L64.4251 46.334ZM67.9767 56.311H66.9246V48.8555C66.9246 48.6874 67.0088 48.6118 67.1855 48.6118H70.1564V46.1238H71.2084V48.6118H74.0699C74.255 48.6118 74.3392 48.6874 74.3392 48.8555V55.3024C74.3392 55.6806 74.1625 55.9664 73.8342 56.1765C73.3882 56.4455 72.5718 56.4791 71.402 56.2774L71.3683 55.2267C72.2352 55.4369 72.7906 55.4705 73.0095 55.3612C73.1946 55.2519 73.2956 55.1091 73.2956 54.9325V53.9912H67.9767V56.311ZM67.8672 46.3003C68.3217 46.7038 68.793 47.2333 69.2896 47.8973L68.4395 48.4773C67.9177 47.7881 67.4633 47.267 67.0677 46.9223L67.8672 46.3003ZM73.2956 50.8308V49.6288C73.2956 49.57 73.2619 49.5532 73.1946 49.5532H68.0608C68.0019 49.5532 67.9767 49.5784 67.9767 49.6288V50.8308H73.2956ZM73.2956 53.033V51.7554H67.9767V53.033H73.2956ZM74.2971 46.7122C73.9773 47.2333 73.5228 47.8133 72.9001 48.4437L72.0584 47.8637C72.6897 47.1997 73.1441 46.645 73.4134 46.1743L74.2971 46.7122Z" fill="white"/>
</svg>
