<svg width="175" height="111" viewBox="0 0 175 111" fill="none" xmlns="http://www.w3.org/2000/svg">
<path d="M171.359 53.7307L87.4917 3.64697L3.64062 53.7307L87.4917 103.798L171.359 53.7307Z" fill="white"/>
<path d="M87.4917 107.437C86.8463 107.437 86.201 107.271 85.6218 106.924L1.77069 56.8569C0.678487 56.1953 0 55.0044 0 53.7308C0 52.4572 0.678487 51.2663 1.77069 50.6047L85.6383 0.521016C86.7801 -0.173672 88.2199 -0.173672 89.3783 0.521016L173.229 50.6047C174.322 51.2663 175 52.4407 175 53.7308C175 55.0209 174.322 56.1953 173.229 56.8569L89.3617 106.924C88.7991 107.271 88.1371 107.437 87.4917 107.437ZM10.74 53.7308L87.4917 99.5637L164.243 53.7308L87.4917 7.8814L10.74 53.7308Z" fill="#E50012"/>
<path d="M70.9267 66.2518H57.5555V65.3255C60.286 65.094 61.1962 65.0278 61.1962 61.8852V42.1527C58.5815 42.3016 54.7257 42.4835 53.9645 48.4711H52.8723L52.9882 40.9453H75.461L75.5437 48.4711H74.4515C73.7068 42.4835 69.851 42.3016 67.2695 42.1527V61.8686C67.2695 65.0444 68.1631 65.1271 70.9432 65.309V66.2518H70.9267Z" fill="#E50012"/>
<path d="M77.2979 40.9619H98.9101V48.4877H97.9669C97.1064 43.1783 94.4421 42.2355 89.3948 42.2355C87.3428 42.2355 86.6643 42.3844 86.6643 43.9888V52.6724C90.2553 52.7054 92.1749 51.7296 92.721 47.0983H93.6974V59.7516H92.721C92.2742 55.0707 90.3711 53.946 86.6643 53.946V63.01C86.6643 64.664 87.3759 65.1106 89.8085 65.1106C93.4822 65.1106 97.2884 64.1347 99.6548 58.478H100.697L99.1915 66.2684H77.2979V65.3421C79.4326 65.1106 80.591 65.0113 80.591 62.6792V44.5511C80.591 42.0866 79.0189 42.0039 77.2979 41.8882V40.9619Z" fill="#E50012"/>
<path d="M102.286 40.9619H123.898V48.4877H122.955C122.095 43.1783 119.43 42.2355 114.383 42.2355C112.315 42.2355 111.653 42.3844 111.653 43.9888V52.6724C115.244 52.7054 117.163 51.7296 117.726 47.0983H118.702V59.7516H117.726C117.279 55.0707 115.359 53.946 111.653 53.946V63.01C111.653 64.664 112.364 65.1106 114.797 65.1106C118.471 65.1106 122.293 64.1347 124.643 58.478H125.686L124.196 66.2684H102.286V65.3421C104.421 65.1106 105.579 65.0113 105.579 62.6792V44.5511C105.579 42.0866 104.007 42.0039 102.286 41.8882V40.9619Z" fill="#E50012"/>
<path d="M28.1986 99.1334L27.636 97.2148L29.9197 97.0659C31.6242 95.1638 33.1963 93.0632 34.6691 90.7476L36.4232 91.7234C35.5958 93.1459 34.3547 94.8495 32.7164 96.884L45.0781 96.0735C44.8629 95.7262 43.8204 94.7834 42.0497 93.2948L43.6714 92.0046C46.4681 94.5353 48.6525 96.702 50.1584 98.4387L48.4871 99.6131L46.8157 97.7606L28.1986 99.1334ZM32.253 110.761H30.0852V101.614C30.0852 101.151 30.3334 100.936 30.8298 100.936H46.948C47.428 100.936 47.6927 101.151 47.6927 101.614V110.761H45.5249V109.802H32.2199V110.761H32.253ZM45.558 107.949V103.087C45.558 102.888 45.4587 102.805 45.2436 102.805H32.5674C32.3523 102.805 32.2199 102.888 32.253 103.087V107.949H45.558Z" fill="#E50012"/>
<path d="M130.319 102.657C129.525 106.064 128.284 108.793 126.662 110.761L124.643 109.934C126.53 107.619 127.771 105.088 128.284 102.309L130.319 102.657ZM126.05 96.5532C127.291 97.2148 128.648 98.1411 130.104 99.3651L128.797 100.821C127.241 99.547 125.934 98.6207 124.842 98.0418L126.05 96.5532ZM126.679 91.1777C127.936 91.9054 129.343 92.9475 130.882 94.3038L129.525 95.6931C127.92 94.3203 126.546 93.2948 125.404 92.6663L126.679 91.1777ZM133.662 110.811H131.593V96.1397C131.593 95.8089 131.759 95.6601 132.106 95.6601H137.948V90.7642H140.017V95.6601H145.643C146.007 95.6601 146.173 95.8089 146.173 96.1397V108.826C146.173 109.57 145.825 110.133 145.18 110.546C144.303 111.076 142.697 111.142 140.397 110.745L140.331 108.677C142.036 109.091 143.128 109.157 143.558 108.942C143.922 108.727 144.121 108.446 144.121 108.098V106.246H133.662V110.811ZM133.447 91.1115C134.34 91.9054 135.267 92.9475 136.244 94.2541L134.572 95.3954C133.546 94.0391 132.653 93.0136 131.875 92.3355L133.447 91.1115ZM144.121 100.027V97.6614C144.121 97.5456 144.054 97.5126 143.922 97.5126H133.827C133.712 97.5126 133.662 97.5622 133.662 97.6614V100.027H144.121ZM144.121 104.36V101.846H133.662V104.36H144.121ZM146.09 91.922C145.461 92.9475 144.567 94.0887 143.343 95.3292L141.688 94.188C142.929 92.8813 143.823 91.7896 144.352 90.8634L146.09 91.922Z" fill="#E50012"/>
</svg>
