<svg width="120" height="121" viewBox="0 0 120 121" fill="none" xmlns="http://www.w3.org/2000/svg">
<g style="mix-blend-mode:darken">
<path d="M120 0H0V120H120V0Z" fill="white"/>
<path d="M61.8004 24.8C66.4396 24.8 70.2004 21.0392 70.2004 16.4C70.2004 11.7608 66.4396 8 61.8004 8C57.1612 8 53.4004 11.7608 53.4004 16.4C53.4004 21.0392 57.1612 24.8 61.8004 24.8Z" fill="white" stroke="#FFB300" stroke-width="5.25" stroke-miterlimit="10" stroke-linecap="round" stroke-linejoin="round"/>
<path d="M40.9004 56.4V49.2C40.9004 39.7 48.6004 32 58.1004 32H65.4004C74.9004 32 82.6004 39.7 82.6004 49.2V96V117.5H40.9004V83.8" fill="white"/>
<path d="M40.9004 56.4V49.2C40.9004 39.7 48.6004 32 58.1004 32H65.4004C74.9004 32 82.6004 39.7 82.6004 49.2V96V117.5H40.9004V83.8" stroke="#FFB300" stroke-width="5.25" stroke-miterlimit="10" stroke-linecap="round" stroke-linejoin="round"/>
<path d="M54.8003 31.8V22.9" stroke="#FFB300" stroke-width="5.25" stroke-miterlimit="10" stroke-linecap="round" stroke-linejoin="round"/>
<path d="M68.8003 22.7V29.5" stroke="#FFB300" stroke-width="5.25" stroke-miterlimit="10" stroke-linecap="round" stroke-linejoin="round"/>
<path d="M72.2002 18.4L83.5002 18.9C87.3002 19.1 91.0002 20.6 93.8002 23.2L100.6 29.5" stroke="#FFB300" stroke-width="5" stroke-miterlimit="10" stroke-linecap="round" stroke-linejoin="round"/>
<path d="M68 10.9L88.4 3.69995H103.1" stroke="#FFB300" stroke-width="4.5" stroke-miterlimit="10" stroke-linecap="round" stroke-linejoin="round"/>
<path d="M53.4 17.5C37.7 17.5 25 30.2 25 45.9V78.9" stroke="#FFB300" stroke-width="5.25" stroke-miterlimit="10" stroke-linecap="round" stroke-linejoin="round"/>
<path d="M54.8003 71.1V90.1H80.9003" stroke="#FFB300" stroke-width="5.25" stroke-miterlimit="10" stroke-linecap="round" stroke-linejoin="round"/>
<path d="M80.9003 56.8H54.8003V71.1" stroke="#FFB300" stroke-width="5.25" stroke-miterlimit="10" stroke-linecap="round" stroke-linejoin="round"/>
<path d="M30.5001 79.3L32.5001 102.3H17.6001L19.6001 79.3" stroke="#FFB300" stroke-width="5.25" stroke-miterlimit="10" stroke-linecap="round" stroke-linejoin="round"/>
<path d="M102.5 57.0999C105.372 57.0999 107.7 54.7718 107.7 51.9C107.7 49.0281 105.372 46.7 102.5 46.7C99.6284 46.7 97.3003 49.0281 97.3003 51.9C97.3003 54.7718 99.6284 57.0999 102.5 57.0999Z" stroke="#FFB300" stroke-width="3.75" stroke-miterlimit="10" stroke-linecap="round" stroke-linejoin="round"/>
<path d="M97.3004 104.2C99.7304 104.2 101.7 102.23 101.7 99.8C101.7 97.37 99.7304 95.4 97.3004 95.4C94.8703 95.4 92.9004 97.37 92.9004 99.8C92.9004 102.23 94.8703 104.2 97.3004 104.2Z" stroke="#FFB300" stroke-width="3.75" stroke-miterlimit="10" stroke-linecap="round" stroke-linejoin="round"/>
<path d="M16.8004 28.3C19.2304 28.3 21.2004 26.3301 21.2004 23.9C21.2004 21.4699 19.2304 19.5 16.8004 19.5C14.3703 19.5 12.4004 21.4699 12.4004 23.9C12.4004 26.3301 14.3703 28.3 16.8004 28.3Z" stroke="#FFB300" stroke-width="4.5" stroke-miterlimit="10" stroke-linecap="round" stroke-linejoin="round"/>
<path d="M12.3002 116.5C14.5646 116.5 16.4002 114.664 16.4002 112.4C16.4002 110.136 14.5646 108.3 12.3002 108.3C10.0358 108.3 8.2002 110.136 8.2002 112.4C8.2002 114.664 10.0358 116.5 12.3002 116.5Z" fill="#FFB300"/>
<path d="M112 82C114.265 82 116.1 80.1644 116.1 77.9C116.1 75.6356 114.265 73.8 112 73.8C109.736 73.8 107.9 75.6356 107.9 77.9C107.9 80.1644 109.736 82 112 82Z" fill="#FFB300"/>
<path d="M40.9004 74.8V65.1" stroke="#FFB300" stroke-width="5.25" stroke-miterlimit="10" stroke-linecap="round" stroke-linejoin="round"/>
<path d="M90.9004 9.5H103.9" stroke="#FFB300" stroke-width="4.5" stroke-miterlimit="10" stroke-linecap="round" stroke-linejoin="round"/>
<path d="M19.6001 79.3H29.2001" stroke="#FFB300" stroke-width="5.25" stroke-miterlimit="10" stroke-linecap="round" stroke-linejoin="round"/>
</g>
</svg>
