<svg width="121" height="120" viewBox="0 0 121 120" fill="none" xmlns="http://www.w3.org/2000/svg">
<g style="mix-blend-mode:darken">
<path d="M120 0H0V120H120V0Z" fill="white"/>
<path d="M18.5003 27.5001C21.3722 27.5001 23.7003 25.172 23.7003 22.3001C23.7003 19.4282 21.3722 17.1001 18.5003 17.1001C15.6284 17.1001 13.3003 19.4282 13.3003 22.3001C13.3003 25.172 15.6284 27.5001 18.5003 27.5001Z" stroke="#FFB300" stroke-width="3.75" stroke-miterlimit="10" stroke-linecap="round" stroke-linejoin="round"/>
<path d="M107.5 21.5C109.93 21.5 111.9 19.53 111.9 17.1C111.9 14.6699 109.93 12.7 107.5 12.7C105.07 12.7 103.1 14.6699 103.1 17.1C103.1 19.53 105.07 21.5 107.5 21.5Z" stroke="#FFB300" stroke-width="3.75" stroke-miterlimit="10" stroke-linecap="round" stroke-linejoin="round"/>
<path d="M97.2003 99.5C99.0781 99.5 100.6 97.9777 100.6 96.1C100.6 94.2222 99.0781 92.7 97.2003 92.7C95.3225 92.7 93.8003 94.2222 93.8003 96.1C93.8003 97.9777 95.3225 99.5 97.2003 99.5Z" stroke="#FFB300" stroke-width="3.75" stroke-miterlimit="10" stroke-linecap="round" stroke-linejoin="round"/>
<path d="M13.2001 46.3001C15.4645 46.3001 17.3001 44.4645 17.3001 42.2001C17.3001 39.9357 15.4645 38.1001 13.2001 38.1001C10.9357 38.1001 9.1001 39.9357 9.1001 42.2001C9.1001 44.4645 10.9357 46.3001 13.2001 46.3001Z" fill="#FFB300"/>
<path d="M116.1 105.3C118.364 105.3 120.2 103.464 120.2 101.2C120.2 98.9357 118.364 97.1001 116.1 97.1001C113.836 97.1001 112 98.9357 112 101.2C112 103.464 113.836 105.3 116.1 105.3Z" fill="#FFB300"/>
<path d="M7.3002 103.6C9.56456 103.6 11.4002 101.764 11.4002 99.5C11.4002 97.2357 9.56456 95.4 7.3002 95.4C5.03583 95.4 3.2002 97.2357 3.2002 99.5C3.2002 101.764 5.03583 103.6 7.3002 103.6Z" fill="#FFB300"/>
<path d="M39.2002 48.7V105" stroke="#FFB300" stroke-width="5.25" stroke-miterlimit="10" stroke-linecap="round" stroke-linejoin="round"/>
<path d="M82.4004 48.7V105" stroke="#FFB300" stroke-width="5.25" stroke-miterlimit="10" stroke-linecap="round" stroke-linejoin="round"/>
<path d="M81.8003 38.1001C81.8003 26.5001 72.4003 17.1001 60.8003 17.1001C49.2003 17.1001 39.8003 26.5001 39.8003 38.1001" stroke="#FFB300" stroke-width="5.25" stroke-miterlimit="10" stroke-linecap="round" stroke-linejoin="round"/>
<path d="M67.8003 18.3V14C67.8003 10.1 64.7003 7 60.8003 7C56.9003 7 53.8003 10.1 53.8003 14V18.2" stroke="#FFB300" stroke-width="5.25" stroke-miterlimit="10" stroke-linecap="round" stroke-linejoin="round"/>
<path d="M60.8 87.9001C68.9738 87.9001 75.6 81.2739 75.6 73.1C75.6 64.9262 68.9738 58.3 60.8 58.3C52.6262 58.3 46 64.9262 46 73.1C46 81.2739 52.6262 87.9001 60.8 87.9001Z" stroke="#FFB300" stroke-width="4.5" stroke-miterlimit="10" stroke-linecap="round" stroke-linejoin="round"/>
<path d="M60.8004 80C64.6112 80 67.7004 76.9107 67.7004 73.1C67.7004 69.2892 64.6112 66.2 60.8004 66.2C56.9896 66.2 53.9004 69.2892 53.9004 73.1C53.9004 76.9107 56.9896 80 60.8004 80Z" stroke="#FFB300" stroke-width="4.5" stroke-miterlimit="10" stroke-linecap="round" stroke-linejoin="round"/>
<path d="M34.9004 47.6001H86.7004" stroke="#FFB300" stroke-width="5.25" stroke-miterlimit="10" stroke-linecap="round" stroke-linejoin="round"/>
<path d="M34.9004 40.5H86.7004" stroke="#FFB300" stroke-width="5.25" stroke-miterlimit="10" stroke-linecap="round" stroke-linejoin="round"/>
<path d="M32.3003 115.4H89.2003" stroke="#FFB300" stroke-width="5.25" stroke-miterlimit="10" stroke-linecap="round" stroke-linejoin="round"/>
<path d="M32.3003 108.2H89.2003" stroke="#FFB300" stroke-width="5.25" stroke-miterlimit="10" stroke-linecap="round" stroke-linejoin="round"/>
<path d="M36.3001 60.7H30.1001V82.5H32.6001" stroke="#FFB300" stroke-width="5.25" stroke-miterlimit="10" stroke-linecap="round" stroke-linejoin="round"/>
<path d="M22.7002 64.2999V78.8999" stroke="#FFB300" stroke-width="5.25" stroke-miterlimit="10" stroke-linecap="round" stroke-linejoin="round"/>
<path d="M85.2002 60.7H91.5002V82.5H89.0002" stroke="#FFB300" stroke-width="5.25" stroke-miterlimit="10" stroke-linecap="round" stroke-linejoin="round"/>
<path d="M98.8003 64.2999V78.8999" stroke="#FFB300" stroke-width="5.25" stroke-miterlimit="10" stroke-linecap="round" stroke-linejoin="round"/>
</g>
</svg>
