<svg width="121" height="96" viewBox="0 0 121 96" fill="none" xmlns="http://www.w3.org/2000/svg">
<g style="mix-blend-mode:darken">
<path d="M120 0H0V94.8617H120V0Z" fill="white"/>
<path d="M28.1001 42.2136C31.9661 42.2136 35.1001 39.7361 35.1001 36.68C35.1001 33.6238 31.9661 31.1464 28.1001 31.1464C24.2341 31.1464 21.1001 33.6238 21.1001 36.68C21.1001 39.7361 24.2341 42.2136 28.1001 42.2136Z" stroke="#FFB300" stroke-width="3.75" stroke-miterlimit="10" stroke-linecap="round" stroke-linejoin="round"/>
<path d="M14.0003 54.1503C16.8722 54.1503 19.2003 52.3099 19.2003 50.0396C19.2003 47.7694 16.8722 45.929 14.0003 45.929C11.1284 45.929 8.80029 47.7694 8.80029 50.0396C8.80029 52.3099 11.1284 54.1503 14.0003 54.1503Z" stroke="#FFB300" stroke-width="3.75" stroke-miterlimit="10" stroke-linecap="round" stroke-linejoin="round"/>
<path d="M39.5 68.3795C41.9853 68.3795 44 66.7869 44 64.8222C44 62.8576 41.9853 61.2649 39.5 61.2649C37.0147 61.2649 35 62.8576 35 64.8222C35 66.7869 37.0147 68.3795 39.5 68.3795Z" stroke="#FFB300" stroke-width="3.75" stroke-miterlimit="10" stroke-linecap="round" stroke-linejoin="round"/>
<path d="M20.4003 21.5812C22.6647 21.5812 24.5003 20.1301 24.5003 18.3401C24.5003 16.5501 22.6647 15.099 20.4003 15.099C18.1359 15.099 16.3003 16.5501 16.3003 18.3401C16.3003 20.1301 18.1359 21.5812 20.4003 21.5812Z" fill="#FFB300"/>
<path d="M44.1003 57.3124C45.6467 57.3124 46.9003 56.3214 46.9003 55.0989C46.9003 53.8765 45.6467 52.8855 44.1003 52.8855C42.5539 52.8855 41.3003 53.8765 41.3003 55.0989C41.3003 56.3214 42.5539 57.3124 44.1003 57.3124Z" fill="#FFB300"/>
<path d="M38.4001 25.2965C39.9465 25.2965 41.2001 24.3055 41.2001 23.0831C41.2001 21.8606 39.9465 20.8696 38.4001 20.8696C36.8537 20.8696 35.6001 21.8606 35.6001 23.0831C35.6001 24.3055 36.8537 25.2965 38.4001 25.2965Z" fill="#FFB300"/>
<path d="M118.1 68.8539C118.1 61.265 110.3 55.099 100.7 55.099C94.6001 55.099 89.3001 57.5496 86.2001 61.265C83.5001 57.5496 78.5001 55.099 72.8001 55.099C70.3001 55.099 67.9001 55.5733 65.8001 56.4429C65.0001 49.5654 57.7001 44.1108 48.8001 44.1108C39.4001 44.1108 31.8001 50.1187 31.7001 57.5496C31.4001 57.5496 31.2001 57.5496 30.9001 57.5496C26.4001 57.5496 22.6001 59.8421 21.1001 63.0041C19.8001 62.6089 18.4001 62.3717 16.9001 62.3717C10.7001 62.3717 5.6001 66.4033 5.6001 71.3045C5.6001 74.6247 7.9001 77.5496 11.4001 79.0516L5.6001 84.1899H117L113.6 78.182C116.4 75.6523 118.1 72.4112 118.1 68.8539Z" stroke="#FFB300" stroke-width="4.5" stroke-miterlimit="10" stroke-linecap="round" stroke-linejoin="round"/>
<path d="M109.8 47.51V73.0436C91.1003 79.2886 70.0003 79.2886 51.3003 73.0436V14.6246L55.4003 13.5969C73.2003 9.24911 92.3003 9.64437 109.8 14.6246V32.9645" fill="white"/>
<path d="M109.8 47.51V73.0436C91.1003 79.2886 70.0003 79.2886 51.3003 73.0436V14.6246L55.4003 13.5969C73.2003 9.24911 92.3003 9.64437 109.8 14.6246V32.9645" stroke="#FFB300" stroke-width="5.25" stroke-miterlimit="10" stroke-linecap="round" stroke-linejoin="round"/>
<path d="M55 20.3954H106.2" stroke="#FFB300" stroke-width="5.25" stroke-miterlimit="10" stroke-linecap="round" stroke-linejoin="round"/>
<path d="M65.8999 9.17002V4.58504C65.8999 4.58504 70.1999 3.55737 80.7999 3.55737C91.3999 3.55737 95.1999 4.58504 95.1999 4.58504V9.17002" stroke="#FFB300" stroke-width="5.25" stroke-miterlimit="10" stroke-linecap="round" stroke-linejoin="round"/>
<path d="M109.8 38.8933V41.5811" stroke="#FFB300" stroke-width="5.25" stroke-miterlimit="10" stroke-linecap="round" stroke-linejoin="round"/>
<path d="M48.1001 91.9369H67.7001" stroke="#FFB300" stroke-width="5.25" stroke-miterlimit="10" stroke-linecap="round" stroke-linejoin="round"/>
<path d="M58.6001 75.0989L54.6001 91.9368H62.9001L66.3001 76.838L58.6001 75.0989Z" fill="white" stroke="#FFB300" stroke-width="5.25" stroke-miterlimit="10" stroke-linecap="round" stroke-linejoin="round"/>
<path d="M113 91.9369H93.3999" stroke="#FFB300" stroke-width="5.25" stroke-miterlimit="10" stroke-linecap="round" stroke-linejoin="round"/>
<path d="M102.6 75.0989L106.5 91.9368H98.2999L94.8999 76.838L102.6 75.0989Z" fill="white" stroke="#FFB300" stroke-width="5.25" stroke-miterlimit="10" stroke-linecap="round" stroke-linejoin="round"/>
<path d="M55 67.2728H100" stroke="#FFB300" stroke-width="5.25" stroke-miterlimit="10" stroke-linecap="round" stroke-linejoin="round"/>
<path d="M39.1003 75.8894C35.2003 74.4665 30.7003 75.5732 28.4003 78.34C25.7003 77.7866 22.7003 78.8933 21.5003 80.9487C20.1003 83.3202 21.4003 86.1661 24.4003 87.2728C25.2003 87.589 26.0003 87.668 26.7003 87.7471C25.9003 89.5653 26.9003 91.6997 29.2003 92.4902C31.6003 93.3597 34.5003 92.5692 35.7003 90.5929C36.1003 89.9605 36.2003 89.2491 36.1003 88.6167C39.0003 88.4586 41.8003 87.0356 43.1003 84.7431C45.2003 81.423 43.3003 77.4704 39.1003 75.8894Z" fill="white"/>
<path d="M39.1003 75.8894C35.2003 74.4665 30.7003 75.5732 28.4003 78.34C25.7003 77.7866 22.7003 78.8933 21.5003 80.9487C20.1003 83.3202 21.4003 86.1661 24.4003 87.2728C25.2003 87.589 26.0003 87.668 26.7003 87.7471C25.9003 89.5653 26.9003 91.6997 29.2003 92.4902C31.6003 93.3597 34.5003 92.5692 35.7003 90.5929C36.1003 89.9605 36.2003 89.2491 36.1003 88.6167C39.0003 88.4586 41.8003 87.0356 43.1003 84.7431C45.2003 81.423 43.3003 77.4704 39.1003 75.8894Z" stroke="#FFB300" stroke-width="4.5" stroke-miterlimit="10" stroke-linecap="round" stroke-linejoin="round"/>
</g>
</svg>
