<svg width="122" height="120" viewBox="0 0 122 120" fill="none" xmlns="http://www.w3.org/2000/svg">
<g style="mix-blend-mode:darken">
<path d="M120 0H0V120H120V0Z" fill="white"/>
<path d="M13.5003 65.9C16.3722 65.9 18.7003 63.5719 18.7003 60.7C18.7003 57.8281 16.3722 55.5 13.5003 55.5C10.6284 55.5 8.30029 57.8281 8.30029 60.7C8.30029 63.5719 10.6284 65.9 13.5003 65.9Z" stroke="#FFB300" stroke-width="3.75" stroke-miterlimit="10" stroke-linecap="round" stroke-linejoin="round"/>
<path d="M114.9 21.3C117.33 21.3 119.3 19.3301 119.3 16.9C119.3 14.4699 117.33 12.5 114.9 12.5C112.47 12.5 110.5 14.4699 110.5 16.9C110.5 19.3301 112.47 21.3 114.9 21.3Z" stroke="#FFB300" stroke-width="4.5" stroke-miterlimit="10" stroke-linecap="round" stroke-linejoin="round"/>
<path d="M8.3002 94.7C10.5646 94.7 12.4002 92.8644 12.4002 90.6C12.4002 88.3356 10.5646 86.5 8.3002 86.5C6.03583 86.5 4.2002 88.3356 4.2002 90.6C4.2002 92.8644 6.03583 94.7 8.3002 94.7Z" fill="#FFB300"/>
<path d="M8.3002 44.2C10.5646 44.2 12.4002 42.3644 12.4002 40.1C12.4002 37.8356 10.5646 36 8.3002 36C6.03583 36 4.2002 37.8356 4.2002 40.1C4.2002 42.3644 6.03583 44.2 8.3002 44.2Z" fill="#FFB300"/>
<path d="M20.9004 38H102.1V100.9V110.4H95.9004H68.5004" stroke="#FFB300" stroke-width="5.25" stroke-miterlimit="10" stroke-linecap="round" stroke-linejoin="round"/>
<path d="M45.0004 110.4H20.9004V68.4" stroke="#FFB300" stroke-width="5.25" stroke-miterlimit="10" stroke-linecap="round" stroke-linejoin="round"/>
<path d="M102.2 8.40002H20.9004V38H102.2V8.40002Z" stroke="#FFB300" stroke-width="5.25" stroke-miterlimit="10" stroke-linecap="round" stroke-linejoin="round"/>
<path d="M34.9001 29.1C38.1034 29.1 40.7001 26.5033 40.7001 23.3C40.7001 20.0967 38.1034 17.5 34.9001 17.5C31.6968 17.5 29.1001 20.0967 29.1001 23.3C29.1001 26.5033 31.6968 29.1 34.9001 29.1Z" stroke="#FFB300" stroke-width="5.25" stroke-miterlimit="10" stroke-linecap="round" stroke-linejoin="round"/>
<path d="M66.3 31.6C70.884 31.6 74.6 27.884 74.6 23.3C74.6 18.716 70.884 15 66.3 15C61.716 15 58 18.716 58 23.3C58 27.884 61.716 31.6 66.3 31.6Z" stroke="#FFB300" stroke-width="5.25" stroke-miterlimit="10" stroke-linecap="round" stroke-linejoin="round"/>
<path d="M47.3003 18.7H51.9003" stroke="#FFB300" stroke-width="3.75" stroke-miterlimit="10" stroke-linecap="round" stroke-linejoin="round"/>
<path d="M47.3003 23.3H51.9003" stroke="#FFB300" stroke-width="3.75" stroke-miterlimit="10" stroke-linecap="round" stroke-linejoin="round"/>
<path d="M47.3003 27.9H51.9003" stroke="#FFB300" stroke-width="3.75" stroke-miterlimit="10" stroke-linecap="round" stroke-linejoin="round"/>
<path d="M84.3003 8.40002V34.9" stroke="#FFB300" stroke-width="5.25" stroke-miterlimit="10" stroke-linecap="round" stroke-linejoin="round"/>
<path d="M45.0001 103.3H29.1001V45.4H94.1001V103.3" stroke="#FFB300" stroke-width="5.25" stroke-miterlimit="10" stroke-linecap="round" stroke-linejoin="round"/>
<path d="M94.1 103.3L71.1 109.6L45.4 116.8L45 55.5L61.6 52.1" stroke="#FFB300" stroke-width="5.25" stroke-miterlimit="10" stroke-linecap="round" stroke-linejoin="round"/>
<path d="M57.9 95.7L50.7 97.5L50.5 67.1L57.7 65.5L57.9 95.7Z" fill="white" stroke="#FFB300" stroke-width="3.75" stroke-miterlimit="10" stroke-linecap="round" stroke-linejoin="round"/>
<path d="M52.3999 74.7L55.9999 73.9" stroke="#FFB300" stroke-width="3.75" stroke-miterlimit="10" stroke-linecap="round" stroke-linejoin="round"/>
<path d="M52.3999 89.1L55.9999 88.2" stroke="#FFB300" stroke-width="3.75" stroke-miterlimit="10" stroke-linecap="round" stroke-linejoin="round"/>
<path d="M88.4001 95.2L65.3001 101.3L65.1001 61.9L88.4001 56.8V95.2Z" fill="white" stroke="#FFB300" stroke-width="3.75" stroke-miterlimit="10" stroke-linecap="round" stroke-linejoin="round"/>
<path d="M20.9004 38V50.8" stroke="#FFB300" stroke-width="5.25" stroke-miterlimit="10" stroke-linecap="round" stroke-linejoin="round"/>
</g>
</svg>
