<svg width="120" height="120" viewBox="0 0 120 120" fill="none" xmlns="http://www.w3.org/2000/svg">
<g style="mix-blend-mode:darken">
<path d="M120 0H0V120H120V0Z" fill="white"/>
<path d="M83.5999 108.7C86.4718 108.7 88.7999 106.372 88.7999 103.5C88.7999 100.628 86.4718 98.2999 83.5999 98.2999C80.728 98.2999 78.3999 100.628 78.3999 103.5C78.3999 106.372 80.728 108.7 83.5999 108.7Z" stroke="#FFB300" stroke-width="3.75" stroke-miterlimit="10" stroke-linecap="round" stroke-linejoin="round"/>
<path d="M16.3997 112.4C17.8909 112.4 19.0997 111.191 19.0997 109.7C19.0997 108.209 17.8909 107 16.3997 107C14.9085 107 13.6997 108.209 13.6997 109.7C13.6997 111.191 14.9085 112.4 16.3997 112.4Z" stroke="#FFB300" stroke-width="3.75" stroke-miterlimit="10" stroke-linecap="round" stroke-linejoin="round"/>
<path d="M110 68.5999C111.491 68.5999 112.7 67.3911 112.7 65.9C112.7 64.4088 111.491 63.2 110 63.2C108.509 63.2 107.3 64.4088 107.3 65.9C107.3 67.3911 108.509 68.5999 110 68.5999Z" stroke="#FFB300" stroke-width="3.75" stroke-miterlimit="10" stroke-linecap="round" stroke-linejoin="round"/>
<path d="M70.7999 97.5C72.1254 97.5 73.1999 96.4254 73.1999 95.1C73.1999 93.7745 72.1254 92.7 70.7999 92.7C69.4744 92.7 68.3999 93.7745 68.3999 95.1C68.3999 96.4254 69.4744 97.5 70.7999 97.5Z" fill="#FFB300"/>
<path d="M96.9999 115.2C98.4358 115.2 99.5999 114.036 99.5999 112.6C99.5999 111.164 98.4358 110 96.9999 110C95.564 110 94.3999 111.164 94.3999 112.6C94.3999 114.036 95.564 115.2 96.9999 115.2Z" fill="#FFB300"/>
<path d="M108.3 33C106 45.4 86.3998 52.2 59.4998 52.2C32.5998 52.2 12.6998 45.4 10.6998 33C8.79979 21.6 22.2998 9 59.4998 9C96.6998 9 110.4 21.6 108.3 33Z" fill="white" stroke="#FFB300" stroke-width="5.25" stroke-miterlimit="10" stroke-linecap="round" stroke-linejoin="round"/>
<path d="M18.3996 52.9V37.9C16.7996 28.4 28.0996 18 59.4996 18C90.8996 18 102.4 28.5 100.6 37.9V52.9" fill="white"/>
<path d="M18.3996 52.9V37.9C16.7996 28.4 28.0996 18 59.4996 18C90.8996 18 102.4 28.5 100.6 37.9V52.9" stroke="#FFB300" stroke-width="4.0384" stroke-miterlimit="10" stroke-linecap="round" stroke-linejoin="round"/>
<path d="M20.7999 44.9999C19.2999 35.5999 29.9999 25.0999 59.4999 25.0999C88.9999 25.0999 99.8999 35.5999 98.1999 44.9999" stroke="#FFB300" stroke-width="5.3003" stroke-miterlimit="10" stroke-linecap="round" stroke-linejoin="round"/>
<path d="M99.7997 56.4999C97.8997 66.6999 81.6997 72.2999 59.4997 72.2999C37.2997 72.2999 20.8997 66.6999 19.1997 56.4999C17.5997 47.0999 28.7997 36.5999 59.4997 36.5999C90.1997 36.5999 101.6 47.0999 99.7997 56.4999Z" fill="white" stroke="#FFB300" stroke-width="5.25" stroke-miterlimit="10" stroke-linecap="round" stroke-linejoin="round"/>
<path d="M99.7997 56.4999C97.8997 66.6999 81.6997 72.2999 59.4997 72.2999C37.2997 72.2999 20.8997 66.6999 19.1997 56.4999C17.5997 47.0999 28.7997 36.5999 59.4997 36.5999C90.1997 36.5999 101.6 47.0999 99.7997 56.4999Z" fill="white" stroke="#FFB300" stroke-width="5.25" stroke-miterlimit="10" stroke-linecap="round" stroke-linejoin="round"/>
<path d="M35.2 76.1999L26.9 65.0999C25.6 56.5999 34.6 47.2999 59.5 47.2999C84.4 47.2999 93.5 56.6999 92.1 65.0999L83.8 76.1999" fill="white"/>
<path d="M35.2 76.1999L26.9 65.0999C25.6 56.5999 34.6 47.2999 59.5 47.2999C84.4 47.2999 93.5 56.6999 92.1 65.0999L83.8 76.1999" stroke="#FFB300" stroke-width="5.25" stroke-miterlimit="10" stroke-linecap="round" stroke-linejoin="round"/>
<path d="M84.4996 74.8C83.2996 81.1 73.2996 84.6 59.4996 84.6C45.6996 84.6 35.5996 81.1 34.4996 74.8C33.4996 69 40.3996 62.5 59.4996 62.5C78.5996 62.5 85.4996 68.9 84.4996 74.8Z" fill="white" stroke="#FFB300" stroke-width="5.25" stroke-miterlimit="10" stroke-linecap="round" stroke-linejoin="round"/>
<path d="M50.0996 54.4999L51.0996 56.8999" stroke="#FFB300" stroke-width="5.25" stroke-miterlimit="10" stroke-linecap="round" stroke-linejoin="round"/>
<path d="M68.8997 54.8999L68.1997 57.3999" stroke="#FFB300" stroke-width="5.25" stroke-miterlimit="10" stroke-linecap="round" stroke-linejoin="round"/>
<path d="M34.8999 60L36.0999 61.6" stroke="#FFB300" stroke-width="5.25" stroke-miterlimit="10" stroke-linecap="round" stroke-linejoin="round"/>
<path d="M84.1001 59.5L83.1001 61.2" stroke="#FFB300" stroke-width="5.25" stroke-miterlimit="10" stroke-linecap="round" stroke-linejoin="round"/>
<path d="M59.4995 26.0999V33.7999" stroke="#FFB300" stroke-width="5.25" stroke-miterlimit="10" stroke-linecap="round" stroke-linejoin="round"/>
<path d="M47.7998 26.0999V36.6999" stroke="#FFB300" stroke-width="5.25" stroke-miterlimit="10" stroke-linecap="round" stroke-linejoin="round"/>
<path d="M37.5996 28.9999V36.6999" stroke="#FFB300" stroke-width="5.25" stroke-miterlimit="10" stroke-linecap="round" stroke-linejoin="round"/>
<path d="M28.0996 33.4999V39.8999" stroke="#FFB300" stroke-width="5.25" stroke-miterlimit="10" stroke-linecap="round" stroke-linejoin="round"/>
<path d="M71.1997 26.0999V36.6999" stroke="#FFB300" stroke-width="5.25" stroke-miterlimit="10" stroke-linecap="round" stroke-linejoin="round"/>
<path d="M81.3994 28.4999V36.6999" stroke="#FFB300" stroke-width="5.25" stroke-miterlimit="10" stroke-linecap="round" stroke-linejoin="round"/>
<path d="M90.8994 32.4999V39.8999" stroke="#FFB300" stroke-width="5.25" stroke-miterlimit="10" stroke-linecap="round" stroke-linejoin="round"/>
<path d="M108.2 92.2C110.2 95.5 109.7 99.5 107.1 101.1C104.5 102.7 100.7 101.3 98.6995 98.1C96.6995 94.8 94.0995 85.9 96.6995 84.3C99.3995 82.6 106.2 88.9 108.2 92.2Z" fill="white" stroke="#FFB300" stroke-width="5.25" stroke-miterlimit="10" stroke-linecap="round" stroke-linejoin="round"/>
<path d="M51.4997 109.3C50.6997 113.1 47.5997 115.6 44.5997 115C41.5997 114.4 39.7997 110.8 40.5997 107C41.3997 103.2 45.6997 94.9998 48.6997 95.5998C51.6997 96.2998 52.2997 105.5 51.4997 109.3Z" fill="white" stroke="#FFB300" stroke-width="5.25" stroke-miterlimit="10" stroke-linecap="round" stroke-linejoin="round"/>
<path d="M16.0998 92.7999C12.9998 95.0999 8.99976 94.8999 7.19976 92.3999C5.39976 89.8999 6.39976 86.0999 9.49976 83.7999C12.5998 81.4999 21.2998 78.1999 23.0998 80.6999C24.8998 83.1999 19.1998 90.4999 16.0998 92.7999Z" fill="white" stroke="#FFB300" stroke-width="5.25" stroke-miterlimit="10" stroke-linecap="round" stroke-linejoin="round"/>
</g>
</svg>
