<svg width="120" height="120" viewBox="0 0 120 120" fill="none" xmlns="http://www.w3.org/2000/svg">
<path d="M120 0H0V120H120V0Z" fill="white"/>
<path d="M25.5003 115C28.3722 115 30.7003 112.672 30.7003 109.8C30.7003 106.928 28.3722 104.6 25.5003 104.6C22.6284 104.6 20.3003 106.928 20.3003 109.8C20.3003 112.672 22.6284 115 25.5003 115Z" stroke="#FFB300" stroke-width="3.75" stroke-miterlimit="10" stroke-linecap="round" stroke-linejoin="round"/>
<path d="M102.7 25.4C105.13 25.4 107.1 23.43 107.1 21C107.1 18.5699 105.13 16.6 102.7 16.6C100.27 16.6 98.3003 18.5699 98.3003 21C98.3003 23.43 100.27 25.4 102.7 25.4Z" stroke="#FFB300" stroke-width="3.75" stroke-miterlimit="10" stroke-linecap="round" stroke-linejoin="round"/>
<path d="M49.9999 109.8C52.2643 109.8 54.0999 107.964 54.0999 105.7C54.0999 103.436 52.2643 101.6 49.9999 101.6C47.7355 101.6 45.8999 103.436 45.8999 105.7C45.8999 107.964 47.7355 109.8 49.9999 109.8Z" fill="#FFB300"/>
<path d="M13.6003 75.1C15.1467 75.1 16.4003 73.8464 16.4003 72.3C16.4003 70.7536 15.1467 69.5 13.6003 69.5C12.0539 69.5 10.8003 70.7536 10.8003 72.3C10.8003 73.8464 12.0539 75.1 13.6003 75.1Z" fill="#FFB300"/>
<path d="M24.4003 16.4999C26.6647 16.4999 28.5003 14.6643 28.5003 12.3999C28.5003 10.1356 26.6647 8.29993 24.4003 8.29993C22.1359 8.29993 20.3003 10.1356 20.3003 12.3999C20.3003 14.6643 22.1359 16.4999 24.4003 16.4999Z" fill="#FFB300"/>
<path d="M90.7002 77.6L59.2002 85.7" stroke="#FFB300" stroke-width="5.25" stroke-miterlimit="10" stroke-linecap="round" stroke-linejoin="round"/>
<path d="M56.2002 28.3999L108.8 43.2999C108.8 43.2999 112.7 49.0999 112.5 56.7999C112.3 66.3999 108.6 72.8999 108.6 72.8999L103.1 73.9999" stroke="#FFB300" stroke-width="5.25" stroke-miterlimit="10" stroke-linecap="round" stroke-linejoin="round"/>
<path d="M51.3001 87.6999C62.7324 87.6999 72.0001 74.2685 72.0001 57.7C72.0001 41.1314 62.7324 27.7 51.3001 27.7C39.8678 27.7 30.6001 41.1314 30.6001 57.7C30.6001 74.2685 39.8678 87.6999 51.3001 87.6999Z" stroke="#FFB300" stroke-width="5.25" stroke-miterlimit="10" stroke-linecap="round" stroke-linejoin="round"/>
<path d="M51.2999 67.4C55.1107 67.4 58.1999 63.0572 58.1999 57.7C58.1999 52.3428 55.1107 48 51.2999 48C47.4891 48 44.3999 52.3428 44.3999 57.7C44.3999 63.0572 47.4891 67.4 51.2999 67.4Z" stroke="#FFB300" stroke-width="5.25" stroke-miterlimit="10" stroke-linecap="round" stroke-linejoin="round"/>
<path d="M62.8003 47L51.3003 48" stroke="#FFB300" stroke-width="5.25" stroke-miterlimit="10" stroke-linecap="round" stroke-linejoin="round"/>
<path d="M51.3003 67.3L63.7003 69.1" stroke="#FFB300" stroke-width="5.25" stroke-miterlimit="10" stroke-linecap="round" stroke-linejoin="round"/>
<path d="M71.0999 83.8L70.8999 94.5L87.8999 109.8L99.5999 104L103.2 65C103.5 61.8 100.7 59.1 97.4999 59.7C95.2999 60.1 93.6999 61.8 93.4999 64L89.7999 101.6" stroke="#FFB300" stroke-width="5.25" stroke-miterlimit="10" stroke-linecap="round" stroke-linejoin="round"/>
<path d="M81.5001 81.7L81.1001 89.2L90.3001 96.6" stroke="#FFB300" stroke-width="5.25" stroke-miterlimit="10" stroke-linecap="round" stroke-linejoin="round"/>
<path d="M98.3999 40.3999C98.3999 40.3999 99.8999 47.3999 100.3 51.8999C100.7 56.3999 99.1999 59.9999 99.1999 59.9999" stroke="#FFB300" stroke-width="5.25" stroke-miterlimit="10" stroke-linecap="round" stroke-linejoin="round"/>
<path d="M79.3003 44.3999L92.7003 47.8999" stroke="#FFB300" stroke-width="5.25" stroke-miterlimit="10" stroke-linecap="round" stroke-linejoin="round"/>
<path d="M29.1 30.8L7 22.6" stroke="#FFB300" stroke-width="5.25" stroke-miterlimit="10" stroke-linecap="round" stroke-linejoin="round"/>
<path d="M29.3001 85.7L13.6001 89.7" stroke="#FFB300" stroke-width="5.25" stroke-miterlimit="10" stroke-linecap="round" stroke-linejoin="round"/>
<path d="M20.5001 56L6.6001 54.7" stroke="#FFB300" stroke-width="5.25" stroke-miterlimit="10" stroke-linecap="round" stroke-linejoin="round"/>
<path d="M24.4002 37.5999L12.7002 34.2" stroke="#FFB300" stroke-width="5.25" stroke-miterlimit="10" stroke-linecap="round" stroke-linejoin="round"/>
</svg>
